<svg width="24" height="24" viewBox="0 0 24 24" fill="none" xmlns="http://www.w3.org/2000/svg">
<path fill-rule="evenodd" clip-rule="evenodd" d="M11 16V14H9.09002C9.0314 13.3592 9 12.6905 9 12C9 11.3095 9.0314 10.6408 9.09002 10H14.91C14.9398 10.3264 14.9626 10.66 14.9778 11H16.9796C16.9658 10.662 16.945 10.3285 16.9176 10H20.777C20.8512 10.3269 20.9076 10.6606 20.9451 11H22.9552C22.4499 5.3935 17.738 1 12 1C5.92487 1 1 5.92487 1 12C1 17.738 5.3935 22.4499 11 22.9552V20.2037C10.7791 19.9072 10.536 19.5024 10.2852 18.9506C9.91473 18.1355 9.60062 17.1361 9.37567 16H11ZM7 12C7 12.683 7.02829 13.3514 7.08244 14H3.22302C3.07706 13.3568 3 12.6874 3 12C3 11.3126 3.07706 10.6432 3.22302 10H7.08244C7.02829 10.6486 7 11.317 7 12ZM8.77407 20.4046C6.66271 19.5937 4.93443 18.01 3.93552 16H7.34086C7.6464 17.7212 8.14332 19.2316 8.77407 20.4046ZM9.37567 8C9.60062 6.86394 9.91473 5.86446 10.2852 5.04943C11.129 3.19312 11.8858 3 12 3C12.1142 3 12.871 3.19312 13.7148 5.04943C14.0853 5.86446 14.3994 6.86394 14.6243 8H9.37567ZM20.0645 8H16.6591C16.3536 6.27877 15.8567 4.76837 15.2259 3.59542C17.3373 4.40633 19.0656 5.98995 20.0645 8ZM7.34086 8H3.93552C4.93443 5.98995 6.6627 4.40633 8.77407 3.59542C8.14332 4.76837 7.6464 6.27877 7.34086 8Z" fill="#FEFAF7"/>
<circle cx="16" cy="16" r="3" stroke="#FEFAF7" stroke-width="2"/>
<line x1="22.2929" y1="22.7071" x2="17.2929" y2="17.7071" stroke="#FEFAF7" stroke-width="2"/>
</svg>
