<svg width="88" height="627" viewBox="0 0 88 627" fill="none" xmlns="http://www.w3.org/2000/svg">
<rect x="18" y="12" width="51" height="81" rx="25.5" fill="url(#paint0_linear_1343_81014)"/>
<path fill-rule="evenodd" clip-rule="evenodd" d="M0 101.257C6.74621 83.5666 23.8706 71 43.9301 71C63.9897 71 81.1141 83.5666 87.8603 101.257C76.192 111.671 60.8003 118 43.9301 118C27.06 118 11.6683 111.671 0 101.257Z" fill="#7B56B8"/>
<path fill-rule="evenodd" clip-rule="evenodd" d="M27.0117 74.137C32.2613 72.1109 37.9659 71 43.93 71C50.4672 71 56.6927 72.3347 62.3489 74.7463C60.625 82.8894 53.3958 89 44.7393 89C35.8682 89 28.496 82.5826 27.0117 74.137Z" fill="#F0C7AB"/>
<path fill-rule="evenodd" clip-rule="evenodd" d="M27.0117 74.137C32.2613 72.1109 37.9659 71 43.93 71C50.4672 71 56.6927 72.3347 62.3489 74.7463C60.625 82.8894 53.3958 89 44.7393 89C35.8682 89 28.496 82.5826 27.0117 74.137Z" fill="black" fill-opacity="0.1"/>
<rect x="17" y="44.7451" width="53" height="13.5098" rx="6.7549" fill="#F0C7AB"/>
<rect x="17" y="44.7451" width="53" height="13.5098" rx="6.7549" fill="black" fill-opacity="0.1"/>
<path d="M22 42.5C22 30.6259 31.6259 21 43.5 21V21C55.3741 21 65 30.6259 65 42.5V54.5C65 66.3741 55.3741 76 43.5 76V76C31.6259 76 22 66.3741 22 54.5V42.5Z" fill="#F0C7AB"/>
<rect x="31" y="46" width="7" height="3" rx="1.5" fill="#1D1D28"/>
<rect x="50" y="46" width="7" height="3" rx="1.5" fill="#1D1D28"/>
<circle cx="36.5" cy="52.5" r="2.5" fill="#1D1D28"/>
<circle cx="51.5" cy="52.5" r="2.5" fill="#1D1D28"/>
<circle cx="31" cy="60" r="2" fill="#F0C7AB"/>
<circle cx="31" cy="60" r="2" fill="black" fill-opacity="0.1"/>
<circle cx="57" cy="60" r="2" fill="#F0C7AB"/>
<circle cx="57" cy="60" r="2" fill="black" fill-opacity="0.1"/>
<line x1="41.0698" y1="63" x2="47.0698" y2="63" stroke="#7B56B8" stroke-width="2" stroke-linecap="round"/>
<path fill-rule="evenodd" clip-rule="evenodd" d="M42 20C30.9543 20 22 28.9543 22 40V48.1629C22 50.6732 24.2854 52.5631 26.7511 52.0917L60.3056 45.6769C63.0298 45.1561 65 42.7735 65 40C65 28.9543 56.0457 20 45 20H42Z" fill="#28283F"/>
<path d="M45.9906 40.5218L44.9999 49.5H41.9999L45.9906 40.5218Z" fill="#F0C7AB"/>
<path d="M62.4999 38.5L61.9999 48H59.9999L62.4999 38.5Z" fill="#F0C7AB"/>
<path d="M28.4999 44.5L27.5093 53.4782H25.5093L28.4999 44.5Z" fill="#F0C7AB"/>
<circle cx="35.4286" cy="51" r="6.42857" fill="#7B56B8"/>
<circle cx="52.5716" cy="51" r="6.42857" fill="#7B56B8"/>
<path fill-rule="evenodd" clip-rule="evenodd" d="M37.9248 45.074L29.5026 53.4962C29.1789 52.7287 29 51.8853 29 51C29 47.4496 31.8782 44.5714 35.4286 44.5714C36.3138 44.5714 37.1573 44.7504 37.9248 45.074Z" fill="white"/>
<path fill-rule="evenodd" clip-rule="evenodd" d="M49.9253 56.8604C50.7323 57.2254 51.6282 57.4285 52.5714 57.4285C56.1218 57.4285 59 54.5504 59 51C59 50.0567 58.7968 49.1608 58.4319 48.3538L49.9253 56.8604Z" fill="white"/>
<rect x="40.7856" y="51" width="6.42857" height="1.07143" fill="#7B56B8"/>
<path fill-rule="evenodd" clip-rule="evenodd" d="M0.0175781 227.21C6.77604 209.545 23.888 197 43.93 197C64.007 197 81.1439 209.589 87.8778 227.303C76.2159 237.689 60.8448 244 43.9998 244C27.1046 244 11.6921 237.652 0.0175781 227.21Z" fill="#55CFE0"/>
<path fill-rule="evenodd" clip-rule="evenodd" d="M26.3413 200.508C31.8447 198.247 37.8718 197 44.1902 197C50.3737 197 56.2782 198.194 61.6859 200.364C60.1104 208.698 52.7911 215 43.9997 215C35.2589 215 27.9732 208.77 26.3413 200.508Z" fill="#DA986C"/>
<path fill-rule="evenodd" clip-rule="evenodd" d="M26.3413 200.508C31.8451 198.247 37.8729 197 44.1919 197C50.3747 197 56.2787 198.194 61.6859 200.364C60.1106 208.697 52.7912 215 43.9996 215C35.259 215 27.9735 208.77 26.3413 200.508Z" fill="black" fill-opacity="0.1"/>
<ellipse cx="33.5" cy="154" rx="19.5" ry="20" fill="#FFC56F"/>
<ellipse cx="55.5" cy="157" rx="17.5" ry="18" fill="#FFC56F"/>
<rect x="14" y="168" width="59" height="16" rx="8" fill="#DA986C"/>
<rect x="14" y="168" width="59" height="16" rx="8" fill="black" fill-opacity="0.1"/>
<path d="M19.5 182L19.5 186" stroke="#55CFE0" stroke-width="3" stroke-linecap="round"/>
<path d="M22 167.5C22 155.626 31.6259 146 43.5 146V146C55.3741 146 65 155.626 65 167.5V187C65 196.389 57.3888 204 48 204H39C29.6112 204 22 196.389 22 187V167.5Z" fill="#DA986C"/>
<path fill-rule="evenodd" clip-rule="evenodd" d="M64.9956 167.051C62.3124 167.668 59.459 168 56.5002 168C43.0235 168 31.7316 161.108 28.7627 151.846C32.6113 148.221 37.7964 146 43.5002 146C55.2244 146 64.7567 155.384 64.9956 167.051Z" fill="#FFC56E"/>
<mask id="mask0_1343_81014" style="mask-type:alpha" maskUnits="userSpaceOnUse" x="22" y="146" width="43" height="58">
<path d="M22 167.5C22 155.626 31.6259 146 43.5 146V146C55.3741 146 65 155.626 65 167.5V187C65 196.389 57.3888 204 48 204H39C29.6112 204 22 196.389 22 187V167.5Z" fill="#DA986C"/>
</mask>
<g mask="url(#mask0_1343_81014)">
<path d="M19 161.5H26" stroke="#FFC56E" stroke-width="3" stroke-linecap="round"/>
<path d="M21 157H28" stroke="#FFC56E" stroke-width="3" stroke-linecap="round"/>
<path d="M17 166H24" stroke="#FFC56E" stroke-width="3" stroke-linecap="round"/>
</g>
<rect x="31" y="170" width="7" height="3" rx="1.5" fill="#FFC56F"/>
<rect x="50" y="170" width="7" height="3" rx="1.5" fill="#FFC56F"/>
<path d="M65 199.265C65 210.92 55.598 229 44 229C32.402 229 23 210.92 23 199.265C23 187.611 32.402 182 44 182C55.598 182 65 187.611 65 199.265Z" fill="#FFC56E"/>
<circle cx="36.5" cy="177.5" r="2.5" fill="#1D1D28"/>
<circle cx="51.5" cy="177.5" r="2.5" fill="#1D1D28"/>
<path d="M39 186.833C39 186.373 39.3731 186 39.8333 186H48.1667C48.6269 186 49 186.373 49 186.833V186.833C49 189.135 47.1345 191 44.8333 191H43.1667C40.8655 191 39 189.135 39 186.833V186.833Z" fill="#F9F9F9"/>
<path fill-rule="evenodd" clip-rule="evenodd" d="M0.0175781 353.21C6.77604 335.545 23.888 323 43.93 323C64.007 323 81.1439 335.589 87.8778 353.303C76.2159 363.689 60.8448 370 43.9998 370C27.1046 370 11.6921 363.652 0.0175781 353.21Z" fill="#728D39"/>
<path fill-rule="evenodd" clip-rule="evenodd" d="M26.3413 326.508C31.8447 324.247 37.8718 323 44.1902 323C50.3737 323 56.2782 324.194 61.6859 326.364C60.1104 334.698 52.7911 341 43.9997 341C35.2589 341 27.9732 334.77 26.3413 326.508Z" fill="#F2B796"/>
<path fill-rule="evenodd" clip-rule="evenodd" d="M26.3413 326.508C31.8451 324.247 37.8729 323 44.1919 323C50.3747 323 56.2787 324.194 61.6859 326.364C60.1106 334.697 52.7912 341 43.9996 341C35.259 341 27.9735 334.77 26.3413 326.508Z" fill="black" fill-opacity="0.1"/>
<ellipse cx="25.6508" cy="291.391" rx="7" ry="11.5" transform="rotate(-19 25.6508 291.391)" fill="#C99952"/>
<ellipse cx="62.0601" cy="291.152" rx="7" ry="11.5" transform="rotate(19 62.0601 291.152)" fill="#C99952"/>
<rect x="16" y="299" width="55" height="16" rx="8" fill="#F2B796"/>
<rect x="16" y="299" width="55" height="16" rx="8" fill="black" fill-opacity="0.1"/>
<path d="M23 293.5C23 282.178 32.1782 273 43.5 273V273C54.8218 273 64 282.178 64 293.5V311C64 321.493 55.4934 330 45 330H42C31.5066 330 23 321.493 23 311V293.5Z" fill="#F2B796"/>
<rect x="31" y="298" width="8" height="3" rx="1.5" fill="#C99952"/>
<rect x="49" y="298" width="8" height="3" rx="1.5" fill="#C99952"/>
<circle cx="36.5" cy="305.5" r="2.5" fill="black"/>
<circle cx="51.5" cy="305.5" r="2.5" fill="black"/>
<path d="M39 313.833C39 313.373 39.3731 313 39.8333 313H48.1667C48.6269 313 49 313.373 49 313.833V313.833C49 316.135 47.1345 318 44.8333 318H43.1667C40.8655 318 39 316.135 39 313.833V313.833Z" fill="#F9F9F9"/>
<rect x="29" y="310" width="6" height="4" rx="2" fill="black" fill-opacity="0.1"/>
<rect x="53" y="310" width="6" height="4" rx="2" fill="black" fill-opacity="0.1"/>
<path d="M66.3694 281.92C70.2381 294.932 58.9998 293.5 44.9998 293.5C33.9998 293.5 24.2758 292.801 21.0789 283.2C18.095 274.24 23.2776 266.14 34.9998 265.5C47.0651 265.5 61.4871 265.5 66.3694 281.92Z" fill="#C99952"/>
<path fill-rule="evenodd" clip-rule="evenodd" d="M0 479.257C6.74621 461.567 23.8706 449 43.9301 449C63.9897 449 81.1141 461.567 87.8603 479.257C76.192 489.671 60.8003 496 43.9301 496C27.06 496 11.6683 489.671 0 479.257Z" fill="#87CE2D"/>
<path fill-rule="evenodd" clip-rule="evenodd" d="M26.0811 452.508C31.5845 450.247 37.6117 449 43.9301 449C50.1135 449 56.018 450.194 61.4256 452.364C59.8501 460.697 52.5308 467 43.7395 467C34.9987 467 27.713 460.77 26.0811 452.508Z" fill="#895A3B"/>
<path fill-rule="evenodd" clip-rule="evenodd" d="M26.0811 452.508C31.5845 450.247 37.6117 449 43.9301 449C50.1135 449 56.018 450.194 61.4256 452.364C59.8501 460.697 52.5308 467 43.7395 467C34.9987 467 27.713 460.77 26.0811 452.508Z" fill="black" fill-opacity="0.1"/>
<rect x="11" y="407.792" width="51.9413" height="23.085" rx="11.5425" transform="rotate(-35 11 407.792)" fill="#1D1D28"/>
<circle cx="58.5" cy="408.5" r="13.5" fill="#1D1D28"/>
<rect x="11" y="422" width="65" height="16" rx="8" fill="#895A3B"/>
<rect x="11" y="422" width="65" height="16" rx="8" fill="black" fill-opacity="0.1"/>
<path d="M18 439C18 437.895 18.8954 437 20 437H68C69.1046 437 70 437.895 70 439V444C70 453.941 61.9411 462 52 462H36C26.0589 462 18 453.941 18 444V439Z" fill="#1D1D28"/>
<path d="M20 421.5C20 408.521 30.5213 398 43.5 398V398C56.4787 398 67 408.521 67 421.5V440C67 448.837 59.8366 456 51 456H36C27.1634 456 20 448.837 20 440V421.5Z" fill="#895A3B"/>
<path fill-rule="evenodd" clip-rule="evenodd" d="M55.8765 440C55.8765 438.895 54.9811 438 53.8765 438H35.8765C34.772 438 33.8765 438.895 33.8765 440V440C33.8765 441.105 32.9811 442 31.8765 442H20.8765C19.772 442 18.8615 442.901 19.0175 443.994C19.9854 450.782 25.8215 456 32.8765 456H54.8765C61.9315 456 67.7677 450.782 68.7356 443.994C68.8915 442.901 67.9811 442 66.8765 442H57.8765C56.772 442 55.8765 441.105 55.8765 440V440Z" fill="#1D1D28"/>
<circle cx="61" cy="410" r="9" fill="#1D1D28"/>
<circle cx="45" cy="404" r="16" fill="#1D1D28"/>
<circle cx="27" cy="410" r="7" fill="#1D1D28"/>
<rect x="30" y="425" width="10" height="4" rx="2" fill="#1D1D28"/>
<rect x="48" y="425" width="10" height="4" rx="2" fill="#1D1D28"/>
<circle cx="36.5" cy="432.5" r="2.5" fill="#1D1D28"/>
<circle cx="51.5" cy="432.5" r="2.5" fill="#1D1D28"/>
<path d="M39 443.833C39 443.373 39.3731 443 39.8333 443H48.1667C48.6269 443 49 443.373 49 443.833V443.833C49 446.135 47.1345 448 44.8333 448H43.1667C40.8655 448 39 446.135 39 443.833V443.833Z" fill="#F9F9F9"/>
<circle cx="29" cy="437" r="2" fill="#895A3B"/>
<circle cx="29" cy="437" r="2" fill="black" fill-opacity="0.1"/>
<circle cx="59" cy="437" r="2" fill="#895A3B"/>
<circle cx="59" cy="437" r="2" fill="black" fill-opacity="0.1"/>
<path fill-rule="evenodd" clip-rule="evenodd" d="M0 605.257C6.74621 587.567 23.8706 575 43.9301 575C63.9897 575 81.1141 587.567 87.8603 605.257C76.192 615.671 60.8003 622 43.9301 622C27.06 622 11.6683 615.671 0 605.257Z" fill="#2D94CE"/>
<path fill-rule="evenodd" clip-rule="evenodd" d="M26.0811 578.508C31.5845 576.247 37.6117 575 43.9301 575C50.1135 575 56.018 576.194 61.4256 578.364C59.8501 586.697 52.5308 593 43.7395 593C34.9987 593 27.713 586.77 26.0811 578.508Z" fill="#E4B08D"/>
<path fill-rule="evenodd" clip-rule="evenodd" d="M26.0811 578.508C31.5845 576.247 37.6117 575 43.9301 575C50.1135 575 56.018 576.194 61.4256 578.364C59.8501 586.697 52.5308 593 43.7395 593C34.9987 593 27.713 586.77 26.0811 578.508Z" fill="black" fill-opacity="0.1"/>
<circle cx="21" cy="21" r="21" transform="matrix(1 0 0 -1 13 556)" fill="#BF8E60"/>
<circle cx="19" cy="19" r="19" transform="matrix(1 0 0 -1 37 549)" fill="#BF8E60"/>
<rect x="17" y="555" width="53" height="16" rx="8" fill="#E4B08D"/>
<rect x="17" y="555" width="53" height="16" rx="8" fill="black" fill-opacity="0.1"/>
<path d="M23 544.5C23 533.178 32.1782 524 43.5 524V524C54.8218 524 64 533.178 64 544.5V566C64 574.837 56.8366 582 48 582H39C30.1634 582 23 574.837 23 566V544.5Z" fill="#E4B08D"/>
<circle cx="32" cy="533" r="14" fill="#BF8E60"/>
<circle cx="47" cy="531" r="11" fill="#BF8E60"/>
<circle cx="61" cy="533" r="8" fill="#BF8E60"/>
<rect x="29" y="552" width="7" height="3" rx="1.5" fill="#BF8E60"/>
<rect x="52" y="552" width="7" height="3" rx="1.5" fill="#BF8E60"/>
<circle cx="37.5" cy="560.5" r="2.5" fill="#1D1D28"/>
<circle cx="50.5" cy="560.5" r="2.5" fill="#1D1D28"/>
<path d="M39 566.833C39 566.373 39.3731 566 39.8333 566H48.1667C48.6269 566 49 566.373 49 566.833V566.833C49 569.135 47.1345 571 44.8333 571H43.1667C40.8655 571 39 569.135 39 566.833V566.833Z" fill="#F9F9F9"/>
<circle cx="34" cy="566" r="2" fill="#E4B08D"/>
<circle cx="34" cy="566" r="2" fill="black" fill-opacity="0.1"/>
<circle cx="54" cy="566" r="2" fill="#E4B08D"/>
<circle cx="54" cy="566" r="2" fill="black" fill-opacity="0.1"/>
<defs>
<linearGradient id="paint0_linear_1343_81014" x1="43.5" y1="12" x2="43.5" y2="93" gradientUnits="userSpaceOnUse">
<stop stop-color="#28283F"/>
<stop offset="0.302083" stop-color="#28283F"/>
<stop offset="1" stop-color="#7B56B8"/>
</linearGradient>
</defs>
</svg>
