<svg width="88" height="627" viewBox="0 0 88 627" fill="none" xmlns="http://www.w3.org/2000/svg">
<path fill-rule="evenodd" clip-rule="evenodd" d="M0 101.257C6.74621 83.5666 23.8706 71 43.9301 71C63.9897 71 81.1141 83.5666 87.8603 101.257C76.192 111.671 60.8003 118 43.9301 118C27.06 118 11.6683 111.671 0 101.257Z" fill="#EDC15F"/>
<path fill-rule="evenodd" clip-rule="evenodd" d="M26.0698 74.5123C31.5762 72.2485 37.6072 71 43.9299 71C50.1091 71 56.0097 72.1924 61.4143 74.3598C59.8406 82.6952 52.5202 89 43.7273 89C34.9881 89 27.7035 82.772 26.0698 74.5123Z" fill="#DD9F76"/>
<path fill-rule="evenodd" clip-rule="evenodd" d="M26.0698 74.5123C31.5762 72.2485 37.6072 71 43.9299 71C50.1091 71 56.0097 72.1925 61.4143 74.3598C59.8406 82.6952 52.5202 89 43.7273 89C34.9881 89 27.7035 82.772 26.0698 74.5123Z" fill="black" fill-opacity="0.1"/>
<path fill-rule="evenodd" clip-rule="evenodd" d="M40.2904 8.70954C40.2904 6.66082 41.9513 5 44 5C46.0487 5 47.7095 6.66082 47.7095 8.70955V11.993L47.8303 11.9084C49.029 11.0691 50.6812 11.3604 51.5206 12.5591C52.3599 13.7578 52.0686 15.41 50.8699 16.2494L46.5289 19.289C45.996 19.6621 45.3734 19.8118 44.7725 19.7576C44.5233 19.8104 44.2649 19.8382 44 19.8382C43.7351 19.8382 43.4767 19.8104 43.2275 19.7576C42.6266 19.8118 42.004 19.6621 41.4711 19.289L37.1301 16.2494C35.9314 15.41 35.6401 13.7578 36.4794 12.5591C37.3188 11.3604 38.971 11.0691 40.1697 11.9084L40.2904 11.993V8.70954Z" fill="#3F3F47"/>
<path d="M39.0028 19.4621C39.139 19.0538 39.5211 18.7783 39.9515 18.7783H48.0488C48.4793 18.7783 48.8614 19.0538 48.9975 19.4621L49.3907 20.6417C49.6066 21.2892 49.1246 21.9579 48.442 21.9579H39.5583C38.8758 21.9579 38.3938 21.2892 38.6096 20.6417L39.0028 19.4621Z" fill="#CE2D2D"/>
<rect x="18" y="41" width="52" height="16" rx="8" fill="#DD9F76"/>
<rect x="18" y="41" width="52" height="16" rx="8" fill="black" fill-opacity="0.1"/>
<path d="M23 41C23 29.402 32.402 20 44 20V20C55.598 20 65 29.402 65 41V57C65 68.598 55.598 78 44 78V78C32.402 78 23 68.598 23 57V41Z" fill="#DD9F76"/>
<path fill-rule="evenodd" clip-rule="evenodd" d="M23.0063 40C23.2783 28.9092 32.5749 20 44.0034 20C55.4318 20 64.7284 28.9092 65.0004 40H61.993C61.7208 30.5662 53.7693 23 44.0002 23C34.2311 23 26.2796 30.5662 26.0074 40H23.0063Z" fill="#3F3F47"/>
<path d="M23 40H26V50.5C26 51.3284 25.3284 52 24.5 52V52C23.6716 52 23 51.3284 23 50.5V40Z" fill="#3F3F47"/>
<path d="M62 40H65V50.5C65 51.3284 64.3284 52 63.5 52V52C62.6716 52 62 51.3284 62 50.5V40Z" fill="#3F3F47"/>
<circle cx="37.5" cy="52.5" r="2.5" fill="#1D1D28"/>
<circle cx="50.5" cy="52.5" r="2.5" fill="#1D1D28"/>
<rect x="31" y="42" width="7" height="3" rx="1.5" fill="#3F3F47"/>
<rect x="50" y="42" width="7" height="3" rx="1.5" fill="#3F3F47"/>
<rect x="42" y="81" width="8" height="4" rx="2" transform="rotate(-90 42 81)" fill="#3F3F47"/>
<path d="M39 61.8333C39 61.3731 39.3731 61 39.8333 61H48.1667C48.6269 61 49 61.3731 49 61.8333V61.8333C49 64.1345 47.1345 66 44.8333 66H43.1667C40.8655 66 39 64.1345 39 61.8333V61.8333Z" fill="#F9F9F9"/>
<circle cx="33" cy="59" r="3" fill="#DD9F76"/>
<circle cx="33" cy="59" r="3" fill="black" fill-opacity="0.1"/>
<circle cx="55" cy="59" r="3" fill="#DD9F76"/>
<circle cx="55" cy="59" r="3" fill="black" fill-opacity="0.1"/>
<rect x="18" y="138" width="51" height="81" rx="25.5" fill="url(#paint0_linear_1343_81016)"/>
<path fill-rule="evenodd" clip-rule="evenodd" d="M0 227.257C6.74621 209.567 23.8706 197 43.9301 197C63.9897 197 81.1141 209.567 87.8603 227.257C76.192 237.671 60.8003 244 43.9301 244C27.06 244 11.6683 237.671 0 227.257Z" fill="#7B56B8"/>
<path fill-rule="evenodd" clip-rule="evenodd" d="M27.0117 200.137C32.2613 198.111 37.9659 197 43.93 197C50.4672 197 56.6927 198.335 62.3489 200.746C60.625 208.889 53.3958 215 44.7393 215C35.8682 215 28.496 208.583 27.0117 200.137Z" fill="#F0C7AB"/>
<path fill-rule="evenodd" clip-rule="evenodd" d="M27.0117 200.137C32.2613 198.111 37.9659 197 43.93 197C50.4672 197 56.6927 198.335 62.3489 200.746C60.625 208.889 53.3958 215 44.7393 215C35.8682 215 28.496 208.583 27.0117 200.137Z" fill="black" fill-opacity="0.1"/>
<rect x="17" y="170.745" width="53" height="13.5098" rx="6.7549" fill="#F0C7AB"/>
<rect x="17" y="170.745" width="53" height="13.5098" rx="6.7549" fill="black" fill-opacity="0.1"/>
<path d="M22 168.5C22 156.626 31.6259 147 43.5 147V147C55.3741 147 65 156.626 65 168.5V180.5C65 192.374 55.3741 202 43.5 202V202C31.6259 202 22 192.374 22 180.5V168.5Z" fill="#F0C7AB"/>
<rect x="31" y="172" width="7" height="3" rx="1.5" fill="#1D1D28"/>
<rect x="50" y="172" width="7" height="3" rx="1.5" fill="#1D1D28"/>
<circle cx="36.5" cy="178.5" r="2.5" fill="#1D1D28"/>
<circle cx="51.5" cy="178.5" r="2.5" fill="#1D1D28"/>
<circle cx="31" cy="186" r="2" fill="#F0C7AB"/>
<circle cx="31" cy="186" r="2" fill="black" fill-opacity="0.1"/>
<circle cx="57" cy="186" r="2" fill="#F0C7AB"/>
<circle cx="57" cy="186" r="2" fill="black" fill-opacity="0.1"/>
<line x1="41.0698" y1="189" x2="47.0698" y2="189" stroke="#7B56B8" stroke-width="2" stroke-linecap="round"/>
<path fill-rule="evenodd" clip-rule="evenodd" d="M42 146C30.9543 146 22 154.954 22 166V174.163C22 176.673 24.2854 178.563 26.7511 178.092L60.3056 171.677C63.0298 171.156 65 168.774 65 166C65 154.954 56.0457 146 45 146H42Z" fill="#28283F"/>
<path d="M45.9906 166.522L44.9999 175.5H41.9999L45.9906 166.522Z" fill="#F0C7AB"/>
<path d="M62.4999 164.5L61.9999 174H59.9999L62.4999 164.5Z" fill="#F0C7AB"/>
<path d="M28.4999 170.5L27.5093 179.478H25.5093L28.4999 170.5Z" fill="#F0C7AB"/>
<circle cx="35.4286" cy="177" r="6.42857" fill="#7B56B8"/>
<circle cx="52.5716" cy="177" r="6.42857" fill="#7B56B8"/>
<path fill-rule="evenodd" clip-rule="evenodd" d="M37.9248 171.074L29.5026 179.496C29.1789 178.729 29 177.885 29 177C29 173.45 31.8782 170.571 35.4286 170.571C36.3138 170.571 37.1573 170.75 37.9248 171.074Z" fill="white"/>
<path fill-rule="evenodd" clip-rule="evenodd" d="M49.9253 182.86C50.7323 183.225 51.6282 183.429 52.5714 183.429C56.1218 183.429 59 180.55 59 177C59 176.057 58.7968 175.161 58.4319 174.354L49.9253 182.86Z" fill="white"/>
<rect x="40.7856" y="177" width="6.42857" height="1.07143" fill="#7B56B8"/>
<path fill-rule="evenodd" clip-rule="evenodd" d="M0 353.257C6.74621 335.567 23.8706 323 43.9301 323C63.9897 323 81.1141 335.567 87.8603 353.257C76.192 363.671 60.8003 370 43.9301 370C27.06 370 11.6683 363.671 0 353.257Z" fill="#EDC15F"/>
<path fill-rule="evenodd" clip-rule="evenodd" d="M26.0698 326.512C31.5762 324.248 37.6072 323 43.9299 323C50.1091 323 56.0097 324.192 61.4143 326.36C59.8406 334.695 52.5202 341 43.7273 341C34.9881 341 27.7035 334.772 26.0698 326.512Z" fill="#DD9F76"/>
<path fill-rule="evenodd" clip-rule="evenodd" d="M26.0698 326.512C31.5762 324.248 37.6072 323 43.9299 323C50.1091 323 56.0097 324.192 61.4143 326.36C59.8406 334.695 52.5202 341 43.7273 341C34.9881 341 27.7035 334.772 26.0698 326.512Z" fill="black" fill-opacity="0.1"/>
<path fill-rule="evenodd" clip-rule="evenodd" d="M40.2904 260.71C40.2904 258.661 41.9513 257 44 257C46.0487 257 47.7095 258.661 47.7095 260.71V263.993L47.8303 263.908C49.029 263.069 50.6812 263.36 51.5206 264.559C52.3599 265.758 52.0686 267.41 50.8699 268.249L46.5289 271.289C45.996 271.662 45.3734 271.812 44.7725 271.758C44.5233 271.81 44.2649 271.838 44 271.838C43.7351 271.838 43.4767 271.81 43.2275 271.758C42.6266 271.812 42.004 271.662 41.4711 271.289L37.1301 268.249C35.9314 267.41 35.6401 265.758 36.4794 264.559C37.3188 263.36 38.971 263.069 40.1697 263.908L40.2904 263.993V260.71Z" fill="#3F3F47"/>
<path d="M39.0028 271.462C39.139 271.054 39.5211 270.778 39.9515 270.778H48.0488C48.4793 270.778 48.8614 271.054 48.9975 271.462L49.3907 272.642C49.6066 273.289 49.1246 273.958 48.442 273.958H39.5583C38.8758 273.958 38.3938 273.289 38.6096 272.642L39.0028 271.462Z" fill="#CE2D2D"/>
<rect x="18" y="293" width="52" height="16" rx="8" fill="#DD9F76"/>
<rect x="18" y="293" width="52" height="16" rx="8" fill="black" fill-opacity="0.1"/>
<path d="M23 293C23 281.402 32.402 272 44 272V272C55.598 272 65 281.402 65 293V309C65 320.598 55.598 330 44 330V330C32.402 330 23 320.598 23 309V293Z" fill="#DD9F76"/>
<path fill-rule="evenodd" clip-rule="evenodd" d="M23.0063 292C23.2783 280.909 32.5749 272 44.0034 272C55.4318 272 64.7284 280.909 65.0004 292H61.993C61.7208 282.566 53.7693 275 44.0002 275C34.2311 275 26.2796 282.566 26.0074 292H23.0063Z" fill="#3F3F47"/>
<path d="M23 292H26V302.5C26 303.328 25.3284 304 24.5 304V304C23.6716 304 23 303.328 23 302.5V292Z" fill="#3F3F47"/>
<path d="M62 292H65V302.5C65 303.328 64.3284 304 63.5 304V304C62.6716 304 62 303.328 62 302.5V292Z" fill="#3F3F47"/>
<circle cx="37.5" cy="304.5" r="2.5" fill="#1D1D28"/>
<circle cx="50.5" cy="304.5" r="2.5" fill="#1D1D28"/>
<rect x="31" y="294" width="7" height="3" rx="1.5" fill="#3F3F47"/>
<rect x="50" y="294" width="7" height="3" rx="1.5" fill="#3F3F47"/>
<rect x="42" y="333" width="8" height="4" rx="2" transform="rotate(-90 42 333)" fill="#3F3F47"/>
<path d="M39 313.833C39 313.373 39.3731 313 39.8333 313H48.1667C48.6269 313 49 313.373 49 313.833V313.833C49 316.135 47.1345 318 44.8333 318H43.1667C40.8655 318 39 316.135 39 313.833V313.833Z" fill="#F9F9F9"/>
<circle cx="33" cy="311" r="3" fill="#DD9F76"/>
<circle cx="33" cy="311" r="3" fill="black" fill-opacity="0.1"/>
<circle cx="55" cy="311" r="3" fill="#DD9F76"/>
<circle cx="55" cy="311" r="3" fill="black" fill-opacity="0.1"/>
<path fill-rule="evenodd" clip-rule="evenodd" d="M0.0175781 479.21C6.77604 461.545 23.888 449 43.93 449C64.007 449 81.1439 461.589 87.8778 479.303C76.2159 489.689 60.8448 496 43.9998 496C27.1046 496 11.6921 489.652 0.0175781 479.21Z" fill="#CE2D2D"/>
<path fill-rule="evenodd" clip-rule="evenodd" d="M26.3413 452.508C31.8447 450.247 37.8718 449 44.1902 449C50.3737 449 56.2782 450.194 61.6859 452.364C60.1104 460.698 52.7911 467 43.9997 467C35.2589 467 27.9732 460.77 26.3413 452.508Z" fill="#DD9F76"/>
<path fill-rule="evenodd" clip-rule="evenodd" d="M26.3413 452.508C31.8451 450.247 37.8729 449 44.1919 449C50.3747 449 56.2787 450.194 61.6859 452.364C60.1106 460.697 52.7912 467 43.9996 467C35.259 467 27.9735 460.77 26.3413 452.508Z" fill="black" fill-opacity="0.1"/>
<circle cx="34" cy="406" r="21" fill="#1D1D28"/>
<circle cx="56" cy="411" r="19" fill="#1D1D28"/>
<rect x="11" y="419" width="65" height="16" rx="8" fill="#DD9F76"/>
<rect x="11" y="419" width="65" height="16" rx="8" fill="black" fill-opacity="0.1"/>
<path d="M20 421.5C20 408.521 30.5213 398 43.5 398V398C56.4787 398 67 408.521 67 421.5V440C67 448.837 59.8366 456 51 456H36C27.1634 456 20 448.837 20 440V421.5Z" fill="#DD9F76"/>
<circle cx="32" cy="408" r="14" fill="#1D1D28"/>
<circle cx="47" cy="406" r="11" fill="#1D1D28"/>
<circle cx="60.5698" cy="407.5" r="8.5" fill="#1D1D28"/>
<rect x="31" y="424" width="7" height="3" rx="1.5" fill="#1D1D28"/>
<rect x="50" y="424" width="7" height="3" rx="1.5" fill="#1D1D28"/>
<circle cx="36.5" cy="430.5" r="2.5" fill="#1D1D28"/>
<circle cx="51.5" cy="430.5" r="2.5" fill="#1D1D28"/>
<path d="M39 437.833C39 437.373 39.3731 437 39.8333 437H48.1667C48.6269 437 49 437.373 49 437.833V437.833C49 440.135 47.1345 442 44.8333 442H43.1667C40.8655 442 39 440.135 39 437.833V437.833Z" fill="#F9F9F9"/>
<circle cx="33" cy="437" r="2" fill="#DD9F76"/>
<circle cx="33" cy="437" r="2" fill="black" fill-opacity="0.1"/>
<circle cx="55" cy="437" r="2" fill="#DD9F76"/>
<circle cx="55" cy="437" r="2" fill="black" fill-opacity="0.1"/>
<path fill-rule="evenodd" clip-rule="evenodd" d="M0 605.257C6.74621 587.567 23.8706 575 43.9301 575C63.9897 575 81.1141 587.567 87.8603 605.257C76.192 615.671 60.8003 622 43.9301 622C27.06 622 11.6683 615.671 0 605.257Z" fill="#87CE2D"/>
<path fill-rule="evenodd" clip-rule="evenodd" d="M26.0811 578.508C31.5845 576.247 37.6117 575 43.9301 575C50.1135 575 56.018 576.194 61.4256 578.364C59.8501 586.697 52.5308 593 43.7395 593C34.9987 593 27.713 586.77 26.0811 578.508Z" fill="#895A3B"/>
<path fill-rule="evenodd" clip-rule="evenodd" d="M26.0811 578.508C31.5845 576.247 37.6117 575 43.9301 575C50.1135 575 56.018 576.194 61.4256 578.364C59.8501 586.697 52.5308 593 43.7395 593C34.9987 593 27.713 586.77 26.0811 578.508Z" fill="black" fill-opacity="0.1"/>
<rect x="11" y="533.792" width="51.9413" height="23.085" rx="11.5425" transform="rotate(-35 11 533.792)" fill="#1D1D28"/>
<circle cx="58.5" cy="534.5" r="13.5" fill="#1D1D28"/>
<rect x="11" y="548" width="65" height="16" rx="8" fill="#895A3B"/>
<rect x="11" y="548" width="65" height="16" rx="8" fill="black" fill-opacity="0.1"/>
<path d="M18 565C18 563.895 18.8954 563 20 563H68C69.1046 563 70 563.895 70 565V570C70 579.941 61.9411 588 52 588H36C26.0589 588 18 579.941 18 570V565Z" fill="#1D1D28"/>
<path d="M20 547.5C20 534.521 30.5213 524 43.5 524V524C56.4787 524 67 534.521 67 547.5V566C67 574.837 59.8366 582 51 582H36C27.1634 582 20 574.837 20 566V547.5Z" fill="#895A3B"/>
<path fill-rule="evenodd" clip-rule="evenodd" d="M55.8765 566C55.8765 564.895 54.9811 564 53.8765 564H35.8765C34.772 564 33.8765 564.895 33.8765 566V566C33.8765 567.105 32.9811 568 31.8765 568H20.8765C19.772 568 18.8615 568.901 19.0175 569.994C19.9854 576.782 25.8215 582 32.8765 582H54.8765C61.9315 582 67.7677 576.782 68.7356 569.994C68.8915 568.901 67.9811 568 66.8765 568H57.8765C56.772 568 55.8765 567.105 55.8765 566V566Z" fill="#1D1D28"/>
<circle cx="61" cy="536" r="9" fill="#1D1D28"/>
<circle cx="45" cy="530" r="16" fill="#1D1D28"/>
<circle cx="27" cy="536" r="7" fill="#1D1D28"/>
<rect x="30" y="551" width="10" height="4" rx="2" fill="#1D1D28"/>
<rect x="48" y="551" width="10" height="4" rx="2" fill="#1D1D28"/>
<circle cx="36.5" cy="558.5" r="2.5" fill="#1D1D28"/>
<circle cx="51.5" cy="558.5" r="2.5" fill="#1D1D28"/>
<path d="M39 569.833C39 569.373 39.3731 569 39.8333 569H48.1667C48.6269 569 49 569.373 49 569.833V569.833C49 572.135 47.1345 574 44.8333 574H43.1667C40.8655 574 39 572.135 39 569.833V569.833Z" fill="#F9F9F9"/>
<circle cx="29" cy="563" r="2" fill="#895A3B"/>
<circle cx="29" cy="563" r="2" fill="black" fill-opacity="0.1"/>
<circle cx="59" cy="563" r="2" fill="#895A3B"/>
<circle cx="59" cy="563" r="2" fill="black" fill-opacity="0.1"/>
<defs>
<linearGradient id="paint0_linear_1343_81016" x1="43.5" y1="138" x2="43.5" y2="219" gradientUnits="userSpaceOnUse">
<stop stop-color="#28283F"/>
<stop offset="0.302083" stop-color="#28283F"/>
<stop offset="1" stop-color="#7B56B8"/>
</linearGradient>
</defs>
</svg>
