<svg width="88" height="627" viewBox="0 0 88 627" fill="none" xmlns="http://www.w3.org/2000/svg">
<path fill-rule="evenodd" clip-rule="evenodd" d="M0 101.257C6.74621 83.5666 23.8706 71 43.9301 71C63.9897 71 81.1141 83.5666 87.8603 101.257C76.192 111.671 60.8003 118 43.9301 118C27.06 118 11.6683 111.671 0 101.257Z" fill="#2D94CE"/>
<path fill-rule="evenodd" clip-rule="evenodd" d="M26.0811 74.5078C31.5845 72.2468 37.6117 71 43.9301 71C50.1135 71 56.018 72.1941 61.4256 74.3642C59.8501 82.6975 52.5308 89 43.7395 89C34.9987 89 27.713 82.7697 26.0811 74.5078Z" fill="#E4B08D"/>
<path fill-rule="evenodd" clip-rule="evenodd" d="M26.0811 74.5078C31.5845 72.2468 37.6117 71 43.9301 71C50.1135 71 56.018 72.1941 61.4256 74.3642C59.8501 82.6975 52.5308 89 43.7395 89C34.9987 89 27.713 82.7697 26.0811 74.5078Z" fill="black" fill-opacity="0.1"/>
<circle cx="21" cy="21" r="21" transform="matrix(1 0 0 -1 13 52)" fill="#BF8E60"/>
<circle cx="19" cy="19" r="19" transform="matrix(1 0 0 -1 37 45)" fill="#BF8E60"/>
<rect x="17" y="51" width="53" height="16" rx="8" fill="#E4B08D"/>
<rect x="17" y="51" width="53" height="16" rx="8" fill="black" fill-opacity="0.1"/>
<path d="M23 40.5C23 29.1782 32.1782 20 43.5 20V20C54.8218 20 64 29.1782 64 40.5V62C64 70.8366 56.8366 78 48 78H39C30.1634 78 23 70.8366 23 62V40.5Z" fill="#E4B08D"/>
<circle cx="32" cy="29" r="14" fill="#BF8E60"/>
<circle cx="47" cy="27" r="11" fill="#BF8E60"/>
<circle cx="61" cy="29" r="8" fill="#BF8E60"/>
<rect x="29" y="48" width="7" height="3" rx="1.5" fill="#BF8E60"/>
<rect x="52" y="48" width="7" height="3" rx="1.5" fill="#BF8E60"/>
<circle cx="37.5" cy="56.5" r="2.5" fill="#1D1D28"/>
<circle cx="50.5" cy="56.5" r="2.5" fill="#1D1D28"/>
<path d="M39 62.8333C39 62.3731 39.3731 62 39.8333 62H48.1667C48.6269 62 49 62.3731 49 62.8333V62.8333C49 65.1345 47.1345 67 44.8333 67H43.1667C40.8655 67 39 65.1345 39 62.8333V62.8333Z" fill="#F9F9F9"/>
<circle cx="34" cy="62" r="2" fill="#E4B08D"/>
<circle cx="34" cy="62" r="2" fill="black" fill-opacity="0.1"/>
<circle cx="54" cy="62" r="2" fill="#E4B08D"/>
<circle cx="54" cy="62" r="2" fill="black" fill-opacity="0.1"/>
<path fill-rule="evenodd" clip-rule="evenodd" d="M0.0175781 227.21C6.77604 209.545 23.888 197 43.93 197C64.007 197 81.1439 209.589 87.8778 227.303C76.2159 237.689 60.8448 244 43.9998 244C27.1046 244 11.6921 237.652 0.0175781 227.21Z" fill="#728D39"/>
<path fill-rule="evenodd" clip-rule="evenodd" d="M26.3413 200.508C31.8447 198.247 37.8718 197 44.1902 197C50.3737 197 56.2782 198.194 61.6859 200.364C60.1104 208.698 52.7911 215 43.9997 215C35.2589 215 27.9732 208.77 26.3413 200.508Z" fill="#F2B796"/>
<path fill-rule="evenodd" clip-rule="evenodd" d="M26.3413 200.508C31.8451 198.247 37.8729 197 44.1919 197C50.3747 197 56.2787 198.194 61.6859 200.364C60.1106 208.697 52.7912 215 43.9996 215C35.259 215 27.9735 208.77 26.3413 200.508Z" fill="black" fill-opacity="0.1"/>
<ellipse cx="25.6508" cy="165.391" rx="7" ry="11.5" transform="rotate(-19 25.6508 165.391)" fill="#C99952"/>
<ellipse cx="62.0601" cy="165.152" rx="7" ry="11.5" transform="rotate(19 62.0601 165.152)" fill="#C99952"/>
<rect x="16" y="173" width="55" height="16" rx="8" fill="#F2B796"/>
<rect x="16" y="173" width="55" height="16" rx="8" fill="black" fill-opacity="0.1"/>
<path d="M23 167.5C23 156.178 32.1782 147 43.5 147V147C54.8218 147 64 156.178 64 167.5V185C64 195.493 55.4934 204 45 204H42C31.5066 204 23 195.493 23 185V167.5Z" fill="#F2B796"/>
<rect x="31" y="172" width="8" height="3" rx="1.5" fill="#C99952"/>
<rect x="49" y="172" width="8" height="3" rx="1.5" fill="#C99952"/>
<circle cx="36.5" cy="179.5" r="2.5" fill="black"/>
<circle cx="51.5" cy="179.5" r="2.5" fill="black"/>
<path d="M39 187.833C39 187.373 39.3731 187 39.8333 187H48.1667C48.6269 187 49 187.373 49 187.833V187.833C49 190.135 47.1345 192 44.8333 192H43.1667C40.8655 192 39 190.135 39 187.833V187.833Z" fill="#F9F9F9"/>
<rect x="29" y="184" width="6" height="4" rx="2" fill="black" fill-opacity="0.1"/>
<rect x="53" y="184" width="6" height="4" rx="2" fill="black" fill-opacity="0.1"/>
<path d="M66.3694 155.92C70.2381 168.932 58.9998 167.5 44.9998 167.5C33.9998 167.5 24.2758 166.801 21.0789 157.2C18.095 148.24 23.2776 140.14 34.9998 139.5C47.0651 139.5 61.4871 139.5 66.3694 155.92Z" fill="#C99952"/>
<circle cx="66" cy="336" r="11" fill="#F5DD9C"/>
<circle cx="22" cy="332" r="11" fill="#F5DD9C"/>
<path d="M17 294.5C17 279.864 28.8645 268 43.5 268V268C58.1355 268 70 279.864 70 294.5V335H17V294.5Z" fill="#F5DD9C"/>
<path fill-rule="evenodd" clip-rule="evenodd" d="M0 353.257C6.74621 335.567 23.8706 323 43.9301 323C63.9897 323 81.1141 335.567 87.8603 353.257C76.192 363.671 60.8003 370 43.9301 370C27.06 370 11.6683 363.671 0 353.257Z" fill="#85745A"/>
<path fill-rule="evenodd" clip-rule="evenodd" d="M26.0811 326.508C31.5845 324.247 37.6117 323 43.9301 323C50.1135 323 56.018 324.194 61.4256 326.364C59.8501 334.697 52.5308 341 43.7395 341C34.9987 341 27.713 334.77 26.0811 326.508Z" fill="#E7A981"/>
<path fill-rule="evenodd" clip-rule="evenodd" d="M26.0811 326.508C31.5845 324.247 37.6117 323 43.9301 323C50.1135 323 56.018 324.194 61.4256 326.364C59.8501 334.697 52.5308 341 43.7395 341C34.9987 341 27.713 334.77 26.0811 326.508Z" fill="black" fill-opacity="0.1"/>
<path d="M55 325H70V336.5C70 340.642 66.6421 344 62.5 344V344C58.3579 344 55 340.642 55 336.5V325Z" fill="#F5DD9C"/>
<path d="M17 325H30V332.5C30 336.09 27.0899 339 23.5 339V339C19.9101 339 17 336.09 17 332.5V325Z" fill="#F5DD9C"/>
<rect x="15" y="293" width="57" height="16" rx="8" fill="#E7A981"/>
<rect x="15" y="293" width="57" height="16" rx="8" fill="black" fill-opacity="0.1"/>
<path d="M21 294.5C21 282.074 31.0736 272 43.5 272V272C55.9264 272 66 282.074 66 294.5V307.5C66 319.926 55.9264 330 43.5 330V330C31.0736 330 21 319.926 21 307.5V294.5Z" fill="#E7A981"/>
<rect x="30" y="296" width="7" height="3" rx="1.5" fill="#1D1D28"/>
<rect x="51" y="296" width="7" height="3" rx="1.5" fill="#1D1D28"/>
<circle cx="36.5" cy="304.5" r="2.5" fill="#1D1D28"/>
<circle cx="51.5" cy="304.5" r="2.5" fill="#1D1D28"/>
<path d="M39 312.833C39 312.373 39.3731 312 39.8333 312H48.1667C48.6269 312 49 312.373 49 312.833V312.833C49 315.135 47.1345 317 44.8333 317H43.1667C40.8655 317 39 315.135 39 312.833V312.833Z" fill="#F9F9F9"/>
<circle cx="33" cy="311" r="2" fill="#E7A981"/>
<circle cx="33" cy="311" r="2" fill="black" fill-opacity="0.1"/>
<circle cx="55" cy="311" r="2" fill="#E7A981"/>
<circle cx="55" cy="311" r="2" fill="black" fill-opacity="0.1"/>
<path fill-rule="evenodd" clip-rule="evenodd" d="M44.128 274.089C44.0173 272.957 44.9569 272.018 46.0872 272.147C57.295 273.43 66 282.949 66 294.5V294.5C66 295.323 65.3206 295.989 64.5017 295.91C53.8089 294.884 45.2628 285.695 44.128 274.089Z" fill="#F5DD9C"/>
<path fill-rule="evenodd" clip-rule="evenodd" d="M18.3497 295.927C18.0144 298.145 19.855 300.026 22.0794 299.733C35.9352 297.908 46.9082 286.935 48.7327 273.08C49.0257 270.855 47.1449 269.015 44.9264 269.35C31.2375 271.419 20.4183 282.238 18.3497 295.927Z" fill="#F5DD9C"/>
<path fill-rule="evenodd" clip-rule="evenodd" d="M0 479.257C6.74621 461.567 23.8706 449 43.9301 449C63.9897 449 81.1141 461.567 87.8603 479.257C76.192 489.671 60.8003 496 43.9301 496C27.06 496 11.6683 489.671 0 479.257Z" fill="#3DBB7E"/>
<path fill-rule="evenodd" clip-rule="evenodd" d="M26.0811 452.508C31.5845 450.247 37.6117 449 43.9301 449C50.1135 449 56.018 450.194 61.4256 452.364C59.8501 460.697 52.5308 467 43.7395 467C34.9987 467 27.713 460.77 26.0811 452.508Z" fill="#F6D1B9"/>
<path fill-rule="evenodd" clip-rule="evenodd" d="M26.0811 452.508C31.5845 450.247 37.6117 449 43.9301 449C50.1135 449 56.018 450.194 61.4256 452.364C59.8501 460.697 52.5308 467 43.7395 467C34.9987 467 27.713 460.77 26.0811 452.508Z" fill="black" fill-opacity="0.05"/>
<circle cx="66.5" cy="409.5" r="14.5" fill="#E374B7"/>
<circle cx="20.5" cy="409.5" r="14.5" fill="#E374B7"/>
<circle cx="65.6598" cy="427.34" r="13.34" fill="#E374B7"/>
<circle cx="21.34" cy="427.34" r="13.34" fill="#E374B7"/>
<rect x="14" y="417" width="59" height="16" rx="8" fill="#F6D1B9"/>
<rect x="14" y="417" width="59" height="16" rx="8" fill="black" fill-opacity="0.05"/>
<path d="M20 421.5C20 408.521 30.5213 398 43.5 398V398C56.4787 398 67 408.521 67 421.5V434C67 446.15 57.1503 456 45 456H42C29.8497 456 20 446.15 20 434V421.5Z" fill="#F7D1B9"/>
<rect x="31" y="423" width="7" height="3" rx="1.5" fill="#E374B7"/>
<rect x="50" y="423" width="7" height="3" rx="1.5" fill="#E374B7"/>
<circle cx="37.5" cy="431.5" r="2.5" fill="#1D1D28"/>
<circle cx="50.5" cy="431.5" r="2.5" fill="#1D1D28"/>
<circle cx="32.5" cy="438.5" r="2.5" fill="#E374B7" fill-opacity="0.5"/>
<circle cx="55.5349" cy="438.535" r="2.53491" fill="#E374B7" fill-opacity="0.5"/>
<path fill-rule="evenodd" clip-rule="evenodd" d="M44.0698 440C43.0698 439 42.5698 439 41.5698 439C40.1891 439 39.0698 439.895 39.0698 441C39.0698 442.657 41.3084 444 44.0698 444C46.8312 444 49.0698 442.657 49.0698 441C49.0698 439.895 47.9505 439 46.5698 439H46.5698C45.5698 439 45.0698 439 44.0698 440Z" fill="#DF6262"/>
<circle cx="44" cy="398" r="21" fill="#E374B7"/>
<circle cx="16.5" cy="430.5" r="2.5" fill="white"/>
<circle cx="70.5" cy="430.5" r="2.5" fill="white"/>
<path fill-rule="evenodd" clip-rule="evenodd" d="M0 605.257C6.74621 587.567 23.8706 575 43.9301 575C63.9897 575 81.1141 587.567 87.8603 605.257C76.192 615.671 60.8003 622 43.9301 622C27.06 622 11.6683 615.671 0 605.257Z" fill="#87CE2D"/>
<path fill-rule="evenodd" clip-rule="evenodd" d="M26.0811 578.508C31.5845 576.247 37.6117 575 43.9301 575C50.1135 575 56.018 576.194 61.4256 578.364C59.8501 586.697 52.5308 593 43.7395 593C34.9987 593 27.713 586.77 26.0811 578.508Z" fill="#895A3B"/>
<path fill-rule="evenodd" clip-rule="evenodd" d="M26.0811 578.508C31.5845 576.247 37.6117 575 43.9301 575C50.1135 575 56.018 576.194 61.4256 578.364C59.8501 586.697 52.5308 593 43.7395 593C34.9987 593 27.713 586.77 26.0811 578.508Z" fill="black" fill-opacity="0.1"/>
<rect x="11" y="533.792" width="51.9413" height="23.085" rx="11.5425" transform="rotate(-35 11 533.792)" fill="#1D1D28"/>
<circle cx="58.5" cy="534.5" r="13.5" fill="#1D1D28"/>
<rect x="11" y="548" width="65" height="16" rx="8" fill="#895A3B"/>
<rect x="11" y="548" width="65" height="16" rx="8" fill="black" fill-opacity="0.1"/>
<path d="M18 565C18 563.895 18.8954 563 20 563H68C69.1046 563 70 563.895 70 565V570C70 579.941 61.9411 588 52 588H36C26.0589 588 18 579.941 18 570V565Z" fill="#1D1D28"/>
<path d="M20 547.5C20 534.521 30.5213 524 43.5 524V524C56.4787 524 67 534.521 67 547.5V566C67 574.837 59.8366 582 51 582H36C27.1634 582 20 574.837 20 566V547.5Z" fill="#895A3B"/>
<path fill-rule="evenodd" clip-rule="evenodd" d="M55.8765 566C55.8765 564.895 54.9811 564 53.8765 564H35.8765C34.772 564 33.8765 564.895 33.8765 566V566C33.8765 567.105 32.9811 568 31.8765 568H20.8765C19.772 568 18.8615 568.901 19.0175 569.994C19.9854 576.782 25.8215 582 32.8765 582H54.8765C61.9315 582 67.7677 576.782 68.7356 569.994C68.8915 568.901 67.9811 568 66.8765 568H57.8765C56.772 568 55.8765 567.105 55.8765 566V566Z" fill="#1D1D28"/>
<circle cx="61" cy="536" r="9" fill="#1D1D28"/>
<circle cx="45" cy="530" r="16" fill="#1D1D28"/>
<circle cx="27" cy="536" r="7" fill="#1D1D28"/>
<rect x="30" y="551" width="10" height="4" rx="2" fill="#1D1D28"/>
<rect x="48" y="551" width="10" height="4" rx="2" fill="#1D1D28"/>
<circle cx="36.5" cy="558.5" r="2.5" fill="#1D1D28"/>
<circle cx="51.5" cy="558.5" r="2.5" fill="#1D1D28"/>
<path d="M39 569.833C39 569.373 39.3731 569 39.8333 569H48.1667C48.6269 569 49 569.373 49 569.833V569.833C49 572.135 47.1345 574 44.8333 574H43.1667C40.8655 574 39 572.135 39 569.833V569.833Z" fill="#F9F9F9"/>
<circle cx="29" cy="563" r="2" fill="#895A3B"/>
<circle cx="29" cy="563" r="2" fill="black" fill-opacity="0.1"/>
<circle cx="59" cy="563" r="2" fill="#895A3B"/>
<circle cx="59" cy="563" r="2" fill="black" fill-opacity="0.1"/>
</svg>
