<svg width="88" height="627" viewBox="0 0 88 627" fill="none" xmlns="http://www.w3.org/2000/svg">
<path fill-rule="evenodd" clip-rule="evenodd" d="M0.0175781 101.21C6.77604 83.5446 23.888 71 43.93 71C64.007 71 81.1439 83.5886 87.8778 101.303C76.2159 111.689 60.8448 118 43.9998 118C27.1046 118 11.6921 111.652 0.0175781 101.21Z" fill="#55CFE0"/>
<path fill-rule="evenodd" clip-rule="evenodd" d="M26.3413 74.5077C31.8447 72.2468 37.8718 71 44.1902 71C50.3737 71 56.2782 72.1941 61.6859 74.3643C60.1104 82.6975 52.7911 89 43.9997 89C35.2589 89 27.9732 82.7697 26.3413 74.5077Z" fill="#DA986C"/>
<path fill-rule="evenodd" clip-rule="evenodd" d="M26.3413 74.5084C31.8451 72.247 37.8729 71 44.1919 71C50.3747 71 56.2787 72.1938 61.6859 74.3636C60.1106 82.6972 52.7912 89 43.9996 89C35.259 89 27.9735 82.7701 26.3413 74.5084Z" fill="black" fill-opacity="0.1"/>
<ellipse cx="33.5" cy="28" rx="19.5" ry="20" fill="#FFC56F"/>
<ellipse cx="55.5" cy="31" rx="17.5" ry="18" fill="#FFC56F"/>
<rect x="14" y="42" width="59" height="16" rx="8" fill="#DA986C"/>
<rect x="14" y="42" width="59" height="16" rx="8" fill="black" fill-opacity="0.1"/>
<path d="M19.5 56L19.5 60" stroke="#55CFE0" stroke-width="3" stroke-linecap="round"/>
<path d="M22 41.5C22 29.6259 31.6259 20 43.5 20V20C55.3741 20 65 29.6259 65 41.5V61C65 70.3888 57.3888 78 48 78H39C29.6112 78 22 70.3888 22 61V41.5Z" fill="#DA986C"/>
<path fill-rule="evenodd" clip-rule="evenodd" d="M64.9956 41.0512C62.3124 41.6678 59.459 42 56.5002 42C43.0235 42 31.7316 35.1076 28.7627 25.8457C32.6113 22.2211 37.7964 20 43.5002 20C55.2244 20 64.7567 29.3843 64.9956 41.0512Z" fill="#FFC56E"/>
<mask id="mask0_1343_79312" style="mask-type:alpha" maskUnits="userSpaceOnUse" x="22" y="20" width="43" height="58">
<path d="M22 41.5C22 29.6259 31.6259 20 43.5 20V20C55.3741 20 65 29.6259 65 41.5V61C65 70.3888 57.3888 78 48 78H39C29.6112 78 22 70.3888 22 61V41.5Z" fill="#DA986C"/>
</mask>
<g mask="url(#mask0_1343_79312)">
<path d="M19 35.5H26" stroke="#FFC56E" stroke-width="3" stroke-linecap="round"/>
<path d="M21 31H28" stroke="#FFC56E" stroke-width="3" stroke-linecap="round"/>
<path d="M17 40H24" stroke="#FFC56E" stroke-width="3" stroke-linecap="round"/>
</g>
<rect x="31" y="44" width="7" height="3" rx="1.5" fill="#FFC56F"/>
<rect x="50" y="44" width="7" height="3" rx="1.5" fill="#FFC56F"/>
<path d="M65 73.2653C65 84.9196 55.598 103 44 103C32.402 103 23 84.9196 23 73.2653C23 61.611 32.402 56 44 56C55.598 56 65 61.611 65 73.2653Z" fill="#FFC56E"/>
<circle cx="36.5" cy="51.5" r="2.5" fill="#1D1D28"/>
<circle cx="51.5" cy="51.5" r="2.5" fill="#1D1D28"/>
<path d="M39 60.8333C39 60.3731 39.3731 60 39.8333 60H48.1667C48.6269 60 49 60.3731 49 60.8333V60.8333C49 63.1345 47.1345 65 44.8333 65H43.1667C40.8655 65 39 63.1345 39 60.8333V60.8333Z" fill="#F9F9F9"/>
<path fill-rule="evenodd" clip-rule="evenodd" d="M0 227.257C6.74621 209.567 23.8706 197 43.9301 197C63.9897 197 81.1141 209.567 87.8603 227.257C76.192 237.671 60.8003 244 43.9301 244C27.06 244 11.6683 237.671 0 227.257Z" fill="#2D94CE"/>
<path fill-rule="evenodd" clip-rule="evenodd" d="M26.0811 200.508C31.5845 198.247 37.6117 197 43.9301 197C50.1135 197 56.018 198.194 61.4256 200.364C59.8501 208.697 52.5308 215 43.7395 215C34.9987 215 27.713 208.77 26.0811 200.508Z" fill="#E4B08D"/>
<path fill-rule="evenodd" clip-rule="evenodd" d="M26.0811 200.508C31.5845 198.247 37.6117 197 43.9301 197C50.1135 197 56.018 198.194 61.4256 200.364C59.8501 208.697 52.5308 215 43.7395 215C34.9987 215 27.713 208.77 26.0811 200.508Z" fill="black" fill-opacity="0.1"/>
<circle cx="21" cy="21" r="21" transform="matrix(1 0 0 -1 13 178)" fill="#BF8E60"/>
<circle cx="19" cy="19" r="19" transform="matrix(1 0 0 -1 37 171)" fill="#BF8E60"/>
<rect x="17" y="177" width="53" height="16" rx="8" fill="#E4B08D"/>
<rect x="17" y="177" width="53" height="16" rx="8" fill="black" fill-opacity="0.1"/>
<path d="M23 166.5C23 155.178 32.1782 146 43.5 146V146C54.8218 146 64 155.178 64 166.5V188C64 196.837 56.8366 204 48 204H39C30.1634 204 23 196.837 23 188V166.5Z" fill="#E4B08D"/>
<circle cx="32" cy="155" r="14" fill="#BF8E60"/>
<circle cx="47" cy="153" r="11" fill="#BF8E60"/>
<circle cx="61" cy="155" r="8" fill="#BF8E60"/>
<rect x="29" y="174" width="7" height="3" rx="1.5" fill="#BF8E60"/>
<rect x="52" y="174" width="7" height="3" rx="1.5" fill="#BF8E60"/>
<circle cx="37.5" cy="182.5" r="2.5" fill="#1D1D28"/>
<circle cx="50.5" cy="182.5" r="2.5" fill="#1D1D28"/>
<path d="M39 188.833C39 188.373 39.3731 188 39.8333 188H48.1667C48.6269 188 49 188.373 49 188.833V188.833C49 191.135 47.1345 193 44.8333 193H43.1667C40.8655 193 39 191.135 39 188.833V188.833Z" fill="#F9F9F9"/>
<circle cx="34" cy="188" r="2" fill="#E4B08D"/>
<circle cx="34" cy="188" r="2" fill="black" fill-opacity="0.1"/>
<circle cx="54" cy="188" r="2" fill="#E4B08D"/>
<circle cx="54" cy="188" r="2" fill="black" fill-opacity="0.1"/>
<path fill-rule="evenodd" clip-rule="evenodd" d="M0 353.257C6.74621 335.567 23.8706 323 43.9301 323C63.9897 323 81.1141 335.567 87.8603 353.257C76.192 363.671 60.8003 370 43.9301 370C27.06 370 11.6683 363.671 0 353.257Z" fill="#EDC15F"/>
<path fill-rule="evenodd" clip-rule="evenodd" d="M26.0698 326.512C31.5762 324.248 37.6072 323 43.9299 323C50.1091 323 56.0097 324.192 61.4143 326.36C59.8406 334.695 52.5202 341 43.7273 341C34.9881 341 27.7035 334.772 26.0698 326.512Z" fill="#DD9F76"/>
<path fill-rule="evenodd" clip-rule="evenodd" d="M26.0698 326.512C31.5762 324.248 37.6072 323 43.9299 323C50.1091 323 56.0097 324.192 61.4143 326.36C59.8406 334.695 52.5202 341 43.7273 341C34.9881 341 27.7035 334.772 26.0698 326.512Z" fill="black" fill-opacity="0.1"/>
<path fill-rule="evenodd" clip-rule="evenodd" d="M40.2904 260.71C40.2904 258.661 41.9513 257 44 257C46.0487 257 47.7095 258.661 47.7095 260.71V263.993L47.8303 263.908C49.029 263.069 50.6812 263.36 51.5206 264.559C52.3599 265.758 52.0686 267.41 50.8699 268.249L46.5289 271.289C45.996 271.662 45.3734 271.812 44.7725 271.758C44.5233 271.81 44.2649 271.838 44 271.838C43.7351 271.838 43.4767 271.81 43.2275 271.758C42.6266 271.812 42.004 271.662 41.4711 271.289L37.1301 268.249C35.9314 267.41 35.6401 265.758 36.4794 264.559C37.3188 263.36 38.971 263.069 40.1697 263.908L40.2904 263.993V260.71Z" fill="#3F3F47"/>
<path d="M39.0028 271.462C39.139 271.054 39.5211 270.778 39.9515 270.778H48.0488C48.4793 270.778 48.8614 271.054 48.9975 271.462L49.3907 272.642C49.6066 273.289 49.1246 273.958 48.442 273.958H39.5583C38.8758 273.958 38.3938 273.289 38.6096 272.642L39.0028 271.462Z" fill="#CE2D2D"/>
<rect x="18" y="293" width="52" height="16" rx="8" fill="#DD9F76"/>
<rect x="18" y="293" width="52" height="16" rx="8" fill="black" fill-opacity="0.1"/>
<path d="M23 293C23 281.402 32.402 272 44 272V272C55.598 272 65 281.402 65 293V309C65 320.598 55.598 330 44 330V330C32.402 330 23 320.598 23 309V293Z" fill="#DD9F76"/>
<path fill-rule="evenodd" clip-rule="evenodd" d="M23.0063 292C23.2783 280.909 32.5749 272 44.0034 272C55.4318 272 64.7284 280.909 65.0004 292H61.993C61.7208 282.566 53.7693 275 44.0002 275C34.2311 275 26.2796 282.566 26.0074 292H23.0063Z" fill="#3F3F47"/>
<path d="M23 292H26V302.5C26 303.328 25.3284 304 24.5 304V304C23.6716 304 23 303.328 23 302.5V292Z" fill="#3F3F47"/>
<path d="M62 292H65V302.5C65 303.328 64.3284 304 63.5 304V304C62.6716 304 62 303.328 62 302.5V292Z" fill="#3F3F47"/>
<circle cx="37.5" cy="304.5" r="2.5" fill="#1D1D28"/>
<circle cx="50.5" cy="304.5" r="2.5" fill="#1D1D28"/>
<rect x="31" y="294" width="7" height="3" rx="1.5" fill="#3F3F47"/>
<rect x="50" y="294" width="7" height="3" rx="1.5" fill="#3F3F47"/>
<rect x="42" y="333" width="8" height="4" rx="2" transform="rotate(-90 42 333)" fill="#3F3F47"/>
<path d="M39 313.833C39 313.373 39.3731 313 39.8333 313H48.1667C48.6269 313 49 313.373 49 313.833V313.833C49 316.135 47.1345 318 44.8333 318H43.1667C40.8655 318 39 316.135 39 313.833V313.833Z" fill="#F9F9F9"/>
<circle cx="33" cy="311" r="3" fill="#DD9F76"/>
<circle cx="33" cy="311" r="3" fill="black" fill-opacity="0.1"/>
<circle cx="55" cy="311" r="3" fill="#DD9F76"/>
<circle cx="55" cy="311" r="3" fill="black" fill-opacity="0.1"/>
<rect x="18" y="390" width="51" height="81" rx="25.5" fill="url(#paint0_linear_1343_79312)"/>
<path fill-rule="evenodd" clip-rule="evenodd" d="M0 479.257C6.74621 461.567 23.8706 449 43.9301 449C63.9897 449 81.1141 461.567 87.8603 479.257C76.192 489.671 60.8003 496 43.9301 496C27.06 496 11.6683 489.671 0 479.257Z" fill="#7B56B8"/>
<path fill-rule="evenodd" clip-rule="evenodd" d="M27.0117 452.137C32.2613 450.111 37.9659 449 43.93 449C50.4672 449 56.6927 450.335 62.3489 452.746C60.625 460.889 53.3958 467 44.7393 467C35.8682 467 28.496 460.583 27.0117 452.137Z" fill="#F0C7AB"/>
<path fill-rule="evenodd" clip-rule="evenodd" d="M27.0117 452.137C32.2613 450.111 37.9659 449 43.93 449C50.4672 449 56.6927 450.335 62.3489 452.746C60.625 460.889 53.3958 467 44.7393 467C35.8682 467 28.496 460.583 27.0117 452.137Z" fill="black" fill-opacity="0.1"/>
<rect x="17" y="422.745" width="53" height="13.5098" rx="6.7549" fill="#F0C7AB"/>
<rect x="17" y="422.745" width="53" height="13.5098" rx="6.7549" fill="black" fill-opacity="0.1"/>
<path d="M22 420.5C22 408.626 31.6259 399 43.5 399V399C55.3741 399 65 408.626 65 420.5V432.5C65 444.374 55.3741 454 43.5 454V454C31.6259 454 22 444.374 22 432.5V420.5Z" fill="#F0C7AB"/>
<rect x="31" y="424" width="7" height="3" rx="1.5" fill="#1D1D28"/>
<rect x="50" y="424" width="7" height="3" rx="1.5" fill="#1D1D28"/>
<circle cx="36.5" cy="430.5" r="2.5" fill="#1D1D28"/>
<circle cx="51.5" cy="430.5" r="2.5" fill="#1D1D28"/>
<circle cx="31" cy="438" r="2" fill="#F0C7AB"/>
<circle cx="31" cy="438" r="2" fill="black" fill-opacity="0.1"/>
<circle cx="57" cy="438" r="2" fill="#F0C7AB"/>
<circle cx="57" cy="438" r="2" fill="black" fill-opacity="0.1"/>
<line x1="41.0698" y1="441" x2="47.0698" y2="441" stroke="#7B56B8" stroke-width="2" stroke-linecap="round"/>
<path fill-rule="evenodd" clip-rule="evenodd" d="M42 398C30.9543 398 22 406.954 22 418V426.163C22 428.673 24.2854 430.563 26.7511 430.092L60.3056 423.677C63.0298 423.156 65 420.774 65 418C65 406.954 56.0457 398 45 398H42Z" fill="#28283F"/>
<path d="M45.9906 418.522L44.9999 427.5H41.9999L45.9906 418.522Z" fill="#F0C7AB"/>
<path d="M62.4999 416.5L61.9999 426H59.9999L62.4999 416.5Z" fill="#F0C7AB"/>
<path d="M28.4999 422.5L27.5093 431.478H25.5093L28.4999 422.5Z" fill="#F0C7AB"/>
<circle cx="35.4286" cy="429" r="6.42857" fill="#7B56B8"/>
<circle cx="52.5716" cy="429" r="6.42857" fill="#7B56B8"/>
<path fill-rule="evenodd" clip-rule="evenodd" d="M37.9248 423.074L29.5026 431.496C29.1789 430.729 29 429.885 29 429C29 425.45 31.8782 422.571 35.4286 422.571C36.3138 422.571 37.1573 422.75 37.9248 423.074Z" fill="white"/>
<path fill-rule="evenodd" clip-rule="evenodd" d="M49.9253 434.86C50.7323 435.225 51.6282 435.429 52.5714 435.429C56.1218 435.429 59 432.55 59 429C59 428.057 58.7968 427.161 58.4319 426.354L49.9253 434.86Z" fill="white"/>
<rect x="40.7856" y="429" width="6.42857" height="1.07143" fill="#7B56B8"/>
<path fill-rule="evenodd" clip-rule="evenodd" d="M0.0175781 605.21C6.77604 587.545 23.888 575 43.93 575C64.007 575 81.1439 587.589 87.8778 605.303C76.2159 615.689 60.8448 622 43.9998 622C27.1046 622 11.6921 615.652 0.0175781 605.21Z" fill="#CE2D2D"/>
<path fill-rule="evenodd" clip-rule="evenodd" d="M26.3413 578.508C31.8447 576.247 37.8718 575 44.1902 575C50.3737 575 56.2782 576.194 61.6859 578.364C60.1104 586.698 52.7911 593 43.9997 593C35.2589 593 27.9732 586.77 26.3413 578.508Z" fill="#DD9F76"/>
<path fill-rule="evenodd" clip-rule="evenodd" d="M26.3413 578.508C31.8451 576.247 37.8729 575 44.1919 575C50.3747 575 56.2787 576.194 61.6859 578.364C60.1106 586.697 52.7912 593 43.9996 593C35.259 593 27.9735 586.77 26.3413 578.508Z" fill="black" fill-opacity="0.1"/>
<circle cx="34" cy="532" r="21" fill="#1D1D28"/>
<circle cx="56" cy="537" r="19" fill="#1D1D28"/>
<rect x="11" y="545" width="65" height="16" rx="8" fill="#DD9F76"/>
<rect x="11" y="545" width="65" height="16" rx="8" fill="black" fill-opacity="0.1"/>
<path d="M20 547.5C20 534.521 30.5213 524 43.5 524V524C56.4787 524 67 534.521 67 547.5V566C67 574.837 59.8366 582 51 582H36C27.1634 582 20 574.837 20 566V547.5Z" fill="#DD9F76"/>
<circle cx="32" cy="534" r="14" fill="#1D1D28"/>
<circle cx="47" cy="532" r="11" fill="#1D1D28"/>
<circle cx="60.5698" cy="533.5" r="8.5" fill="#1D1D28"/>
<rect x="31" y="550" width="7" height="3" rx="1.5" fill="#1D1D28"/>
<rect x="50" y="550" width="7" height="3" rx="1.5" fill="#1D1D28"/>
<circle cx="36.5" cy="556.5" r="2.5" fill="#1D1D28"/>
<circle cx="51.5" cy="556.5" r="2.5" fill="#1D1D28"/>
<path d="M39 563.833C39 563.373 39.3731 563 39.8333 563H48.1667C48.6269 563 49 563.373 49 563.833V563.833C49 566.135 47.1345 568 44.8333 568H43.1667C40.8655 568 39 566.135 39 563.833V563.833Z" fill="#F9F9F9"/>
<circle cx="33" cy="563" r="2" fill="#DD9F76"/>
<circle cx="33" cy="563" r="2" fill="black" fill-opacity="0.1"/>
<circle cx="55" cy="563" r="2" fill="#DD9F76"/>
<circle cx="55" cy="563" r="2" fill="black" fill-opacity="0.1"/>
<defs>
<linearGradient id="paint0_linear_1343_79312" x1="43.5" y1="390" x2="43.5" y2="471" gradientUnits="userSpaceOnUse">
<stop stop-color="#28283F"/>
<stop offset="0.302083" stop-color="#28283F"/>
<stop offset="1" stop-color="#7B56B8"/>
</linearGradient>
</defs>
</svg>
