<svg width="88" height="627" viewBox="0 0 88 627" fill="none" xmlns="http://www.w3.org/2000/svg">
<circle cx="66" cy="84" r="11" fill="#F5DD9C"/>
<circle cx="22" cy="80" r="11" fill="#F5DD9C"/>
<path d="M17 42.5C17 27.8645 28.8645 16 43.5 16V16C58.1355 16 70 27.8645 70 42.5V83H17V42.5Z" fill="#F5DD9C"/>
<path fill-rule="evenodd" clip-rule="evenodd" d="M0 101.257C6.74621 83.5666 23.8706 71 43.9301 71C63.9897 71 81.1141 83.5666 87.8603 101.257C76.192 111.671 60.8003 118 43.9301 118C27.06 118 11.6683 111.671 0 101.257Z" fill="#85745A"/>
<path fill-rule="evenodd" clip-rule="evenodd" d="M26.0811 74.5078C31.5845 72.2468 37.6117 71 43.9301 71C50.1135 71 56.018 72.1941 61.4256 74.3642C59.8501 82.6975 52.5308 89 43.7395 89C34.9987 89 27.713 82.7697 26.0811 74.5078Z" fill="#E7A981"/>
<path fill-rule="evenodd" clip-rule="evenodd" d="M26.0811 74.5078C31.5845 72.2468 37.6117 71 43.9301 71C50.1135 71 56.018 72.1941 61.4256 74.3642C59.8501 82.6975 52.5308 89 43.7395 89C34.9987 89 27.713 82.7697 26.0811 74.5078Z" fill="black" fill-opacity="0.1"/>
<path d="M55 73H70V84.5C70 88.6421 66.6421 92 62.5 92V92C58.3579 92 55 88.6421 55 84.5V73Z" fill="#F5DD9C"/>
<path d="M17 73H30V80.5C30 84.0899 27.0899 87 23.5 87V87C19.9101 87 17 84.0899 17 80.5V73Z" fill="#F5DD9C"/>
<rect x="15" y="41" width="57" height="16" rx="8" fill="#E7A981"/>
<rect x="15" y="41" width="57" height="16" rx="8" fill="black" fill-opacity="0.1"/>
<path d="M21 42.5C21 30.0736 31.0736 20 43.5 20V20C55.9264 20 66 30.0736 66 42.5V55.5C66 67.9264 55.9264 78 43.5 78V78C31.0736 78 21 67.9264 21 55.5V42.5Z" fill="#E7A981"/>
<rect x="30" y="44" width="7" height="3" rx="1.5" fill="#1D1D28"/>
<rect x="51" y="44" width="7" height="3" rx="1.5" fill="#1D1D28"/>
<circle cx="36.5" cy="52.5" r="2.5" fill="#1D1D28"/>
<circle cx="51.5" cy="52.5" r="2.5" fill="#1D1D28"/>
<path d="M39 60.8333C39 60.3731 39.3731 60 39.8333 60H48.1667C48.6269 60 49 60.3731 49 60.8333V60.8333C49 63.1345 47.1345 65 44.8333 65H43.1667C40.8655 65 39 63.1345 39 60.8333V60.8333Z" fill="#F9F9F9"/>
<circle cx="33" cy="59" r="2" fill="#E7A981"/>
<circle cx="33" cy="59" r="2" fill="black" fill-opacity="0.1"/>
<circle cx="55" cy="59" r="2" fill="#E7A981"/>
<circle cx="55" cy="59" r="2" fill="black" fill-opacity="0.1"/>
<path fill-rule="evenodd" clip-rule="evenodd" d="M44.128 22.0892C44.0173 20.9569 44.9569 20.0177 46.0872 20.1471C57.295 21.4303 66 30.9486 66 42.5V42.5C66 43.3226 65.3206 43.9891 64.5017 43.9105C53.8089 42.8837 45.2628 33.6951 44.128 22.0892Z" fill="#F5DD9C"/>
<path fill-rule="evenodd" clip-rule="evenodd" d="M18.3497 43.9267C18.0144 46.1451 19.855 48.0259 22.0794 47.733C35.9352 45.9085 46.9082 34.9355 48.7327 21.0797C49.0257 18.8552 47.1449 17.0147 44.9264 17.3499C31.2375 19.4185 20.4183 30.2377 18.3497 43.9267Z" fill="#F5DD9C"/>
<path fill-rule="evenodd" clip-rule="evenodd" d="M0.0175781 227.21C6.77604 209.545 23.888 197 43.93 197C64.007 197 81.1439 209.589 87.8778 227.303C76.2159 237.689 60.8448 244 43.9998 244C27.1046 244 11.6921 237.652 0.0175781 227.21Z" fill="#CE2D2D"/>
<path fill-rule="evenodd" clip-rule="evenodd" d="M26.3413 200.508C31.8447 198.247 37.8718 197 44.1902 197C50.3737 197 56.2782 198.194 61.6859 200.364C60.1104 208.698 52.7911 215 43.9997 215C35.2589 215 27.9732 208.77 26.3413 200.508Z" fill="#DD9F76"/>
<path fill-rule="evenodd" clip-rule="evenodd" d="M26.3413 200.508C31.8451 198.247 37.8729 197 44.1919 197C50.3747 197 56.2787 198.194 61.6859 200.364C60.1106 208.697 52.7912 215 43.9996 215C35.259 215 27.9735 208.77 26.3413 200.508Z" fill="black" fill-opacity="0.1"/>
<circle cx="34" cy="154" r="21" fill="#1D1D28"/>
<circle cx="56" cy="159" r="19" fill="#1D1D28"/>
<rect x="11" y="167" width="65" height="16" rx="8" fill="#DD9F76"/>
<rect x="11" y="167" width="65" height="16" rx="8" fill="black" fill-opacity="0.1"/>
<path d="M20 169.5C20 156.521 30.5213 146 43.5 146V146C56.4787 146 67 156.521 67 169.5V188C67 196.837 59.8366 204 51 204H36C27.1634 204 20 196.837 20 188V169.5Z" fill="#DD9F76"/>
<circle cx="32" cy="156" r="14" fill="#1D1D28"/>
<circle cx="47" cy="154" r="11" fill="#1D1D28"/>
<circle cx="60.5698" cy="155.5" r="8.5" fill="#1D1D28"/>
<rect x="31" y="172" width="7" height="3" rx="1.5" fill="#1D1D28"/>
<rect x="50" y="172" width="7" height="3" rx="1.5" fill="#1D1D28"/>
<circle cx="36.5" cy="178.5" r="2.5" fill="#1D1D28"/>
<circle cx="51.5" cy="178.5" r="2.5" fill="#1D1D28"/>
<path d="M39 185.833C39 185.373 39.3731 185 39.8333 185H48.1667C48.6269 185 49 185.373 49 185.833V185.833C49 188.135 47.1345 190 44.8333 190H43.1667C40.8655 190 39 188.135 39 185.833V185.833Z" fill="#F9F9F9"/>
<circle cx="33" cy="185" r="2" fill="#DD9F76"/>
<circle cx="33" cy="185" r="2" fill="black" fill-opacity="0.1"/>
<circle cx="55" cy="185" r="2" fill="#DD9F76"/>
<circle cx="55" cy="185" r="2" fill="black" fill-opacity="0.1"/>
<path fill-rule="evenodd" clip-rule="evenodd" d="M0 353.257C6.74621 335.567 23.8706 323 43.9301 323C63.9897 323 81.1141 335.567 87.8603 353.257C76.192 363.671 60.8003 370 43.9301 370C27.06 370 11.6683 363.671 0 353.257Z" fill="#3DBB7E"/>
<path fill-rule="evenodd" clip-rule="evenodd" d="M26.0811 326.508C31.5845 324.247 37.6117 323 43.9301 323C50.1135 323 56.018 324.194 61.4256 326.364C59.8501 334.697 52.5308 341 43.7395 341C34.9987 341 27.713 334.77 26.0811 326.508Z" fill="#F6D1B9"/>
<path fill-rule="evenodd" clip-rule="evenodd" d="M26.0811 326.508C31.5845 324.247 37.6117 323 43.9301 323C50.1135 323 56.018 324.194 61.4256 326.364C59.8501 334.697 52.5308 341 43.7395 341C34.9987 341 27.713 334.77 26.0811 326.508Z" fill="black" fill-opacity="0.05"/>
<circle cx="66.5" cy="283.5" r="14.5" fill="#E374B7"/>
<circle cx="20.5" cy="283.5" r="14.5" fill="#E374B7"/>
<circle cx="65.6598" cy="301.34" r="13.34" fill="#E374B7"/>
<circle cx="21.34" cy="301.34" r="13.34" fill="#E374B7"/>
<rect x="14" y="291" width="59" height="16" rx="8" fill="#F6D1B9"/>
<rect x="14" y="291" width="59" height="16" rx="8" fill="black" fill-opacity="0.05"/>
<path d="M20 295.5C20 282.521 30.5213 272 43.5 272V272C56.4787 272 67 282.521 67 295.5V308C67 320.15 57.1503 330 45 330H42C29.8497 330 20 320.15 20 308V295.5Z" fill="#F7D1B9"/>
<rect x="31" y="297" width="7" height="3" rx="1.5" fill="#E374B7"/>
<rect x="50" y="297" width="7" height="3" rx="1.5" fill="#E374B7"/>
<circle cx="37.5" cy="305.5" r="2.5" fill="#1D1D28"/>
<circle cx="50.5" cy="305.5" r="2.5" fill="#1D1D28"/>
<circle cx="32.5" cy="312.5" r="2.5" fill="#E374B7" fill-opacity="0.5"/>
<circle cx="55.5349" cy="312.535" r="2.53491" fill="#E374B7" fill-opacity="0.5"/>
<path fill-rule="evenodd" clip-rule="evenodd" d="M44.0698 314C43.0698 313 42.5698 313 41.5698 313C40.1891 313 39.0698 313.895 39.0698 315C39.0698 316.657 41.3084 318 44.0698 318C46.8312 318 49.0698 316.657 49.0698 315C49.0698 313.895 47.9505 313 46.5698 313H46.5698C45.5698 313 45.0698 313 44.0698 314Z" fill="#DF6262"/>
<circle cx="44" cy="272" r="21" fill="#E374B7"/>
<circle cx="16.5" cy="304.5" r="2.5" fill="white"/>
<circle cx="70.5" cy="304.5" r="2.5" fill="white"/>
<path fill-rule="evenodd" clip-rule="evenodd" d="M0 479.257C6.74621 461.567 23.8706 449 43.9301 449C63.9897 449 81.1141 461.567 87.8603 479.257C76.192 489.671 60.8003 496 43.9301 496C27.06 496 11.6683 489.671 0 479.257Z" fill="#2D94CE"/>
<path fill-rule="evenodd" clip-rule="evenodd" d="M26.0811 452.508C31.5845 450.247 37.6117 449 43.9301 449C50.1135 449 56.018 450.194 61.4256 452.364C59.8501 460.697 52.5308 467 43.7395 467C34.9987 467 27.713 460.77 26.0811 452.508Z" fill="#E4B08D"/>
<path fill-rule="evenodd" clip-rule="evenodd" d="M26.0811 452.508C31.5845 450.247 37.6117 449 43.9301 449C50.1135 449 56.018 450.194 61.4256 452.364C59.8501 460.697 52.5308 467 43.7395 467C34.9987 467 27.713 460.77 26.0811 452.508Z" fill="black" fill-opacity="0.1"/>
<circle cx="21" cy="21" r="21" transform="matrix(1 0 0 -1 13 430)" fill="#BF8E60"/>
<circle cx="19" cy="19" r="19" transform="matrix(1 0 0 -1 37 423)" fill="#BF8E60"/>
<rect x="17" y="429" width="53" height="16" rx="8" fill="#E4B08D"/>
<rect x="17" y="429" width="53" height="16" rx="8" fill="black" fill-opacity="0.1"/>
<path d="M23 418.5C23 407.178 32.1782 398 43.5 398V398C54.8218 398 64 407.178 64 418.5V440C64 448.837 56.8366 456 48 456H39C30.1634 456 23 448.837 23 440V418.5Z" fill="#E4B08D"/>
<circle cx="32" cy="407" r="14" fill="#BF8E60"/>
<circle cx="47" cy="405" r="11" fill="#BF8E60"/>
<circle cx="61" cy="407" r="8" fill="#BF8E60"/>
<rect x="29" y="426" width="7" height="3" rx="1.5" fill="#BF8E60"/>
<rect x="52" y="426" width="7" height="3" rx="1.5" fill="#BF8E60"/>
<circle cx="37.5" cy="434.5" r="2.5" fill="#1D1D28"/>
<circle cx="50.5" cy="434.5" r="2.5" fill="#1D1D28"/>
<path d="M39 440.833C39 440.373 39.3731 440 39.8333 440H48.1667C48.6269 440 49 440.373 49 440.833V440.833C49 443.135 47.1345 445 44.8333 445H43.1667C40.8655 445 39 443.135 39 440.833V440.833Z" fill="#F9F9F9"/>
<circle cx="34" cy="440" r="2" fill="#E4B08D"/>
<circle cx="34" cy="440" r="2" fill="black" fill-opacity="0.1"/>
<circle cx="54" cy="440" r="2" fill="#E4B08D"/>
<circle cx="54" cy="440" r="2" fill="black" fill-opacity="0.1"/>
<path fill-rule="evenodd" clip-rule="evenodd" d="M0 605.257C6.74621 587.567 23.8706 575 43.9301 575C63.9897 575 81.1141 587.567 87.8603 605.257C76.192 615.671 60.8003 622 43.9301 622C27.06 622 11.6683 615.671 0 605.257Z" fill="#EDC15F"/>
<path fill-rule="evenodd" clip-rule="evenodd" d="M26.0698 578.512C31.5762 576.248 37.6072 575 43.9299 575C50.1091 575 56.0097 576.192 61.4143 578.36C59.8406 586.695 52.5202 593 43.7273 593C34.9881 593 27.7035 586.772 26.0698 578.512Z" fill="#DD9F76"/>
<path fill-rule="evenodd" clip-rule="evenodd" d="M26.0698 578.512C31.5762 576.248 37.6072 575 43.9299 575C50.1091 575 56.0097 576.192 61.4143 578.36C59.8406 586.695 52.5202 593 43.7273 593C34.9881 593 27.7035 586.772 26.0698 578.512Z" fill="black" fill-opacity="0.1"/>
<path fill-rule="evenodd" clip-rule="evenodd" d="M40.2904 512.71C40.2904 510.661 41.9513 509 44 509C46.0487 509 47.7095 510.661 47.7095 512.71V515.993L47.8303 515.908C49.029 515.069 50.6812 515.36 51.5206 516.559C52.3599 517.758 52.0686 519.41 50.8699 520.249L46.5289 523.289C45.996 523.662 45.3734 523.812 44.7725 523.758C44.5233 523.81 44.2649 523.838 44 523.838C43.7351 523.838 43.4767 523.81 43.2275 523.758C42.6266 523.812 42.004 523.662 41.4711 523.289L37.1301 520.249C35.9314 519.41 35.6401 517.758 36.4794 516.559C37.3188 515.36 38.971 515.069 40.1697 515.908L40.2904 515.993V512.71Z" fill="#3F3F47"/>
<path d="M39.0028 523.462C39.139 523.054 39.5211 522.778 39.9515 522.778H48.0488C48.4793 522.778 48.8614 523.054 48.9975 523.462L49.3907 524.642C49.6066 525.289 49.1246 525.958 48.442 525.958H39.5583C38.8758 525.958 38.3938 525.289 38.6096 524.642L39.0028 523.462Z" fill="#CE2D2D"/>
<rect x="18" y="545" width="52" height="16" rx="8" fill="#DD9F76"/>
<rect x="18" y="545" width="52" height="16" rx="8" fill="black" fill-opacity="0.1"/>
<path d="M23 545C23 533.402 32.402 524 44 524V524C55.598 524 65 533.402 65 545V561C65 572.598 55.598 582 44 582V582C32.402 582 23 572.598 23 561V545Z" fill="#DD9F76"/>
<path fill-rule="evenodd" clip-rule="evenodd" d="M23.0063 544C23.2783 532.909 32.5749 524 44.0034 524C55.4318 524 64.7284 532.909 65.0004 544H61.993C61.7208 534.566 53.7693 527 44.0002 527C34.2311 527 26.2796 534.566 26.0074 544H23.0063Z" fill="#3F3F47"/>
<path d="M23 544H26V554.5C26 555.328 25.3284 556 24.5 556V556C23.6716 556 23 555.328 23 554.5V544Z" fill="#3F3F47"/>
<path d="M62 544H65V554.5C65 555.328 64.3284 556 63.5 556V556C62.6716 556 62 555.328 62 554.5V544Z" fill="#3F3F47"/>
<circle cx="37.5" cy="556.5" r="2.5" fill="#1D1D28"/>
<circle cx="50.5" cy="556.5" r="2.5" fill="#1D1D28"/>
<rect x="31" y="546" width="7" height="3" rx="1.5" fill="#3F3F47"/>
<rect x="50" y="546" width="7" height="3" rx="1.5" fill="#3F3F47"/>
<rect x="42" y="585" width="8" height="4" rx="2" transform="rotate(-90 42 585)" fill="#3F3F47"/>
<path d="M39 565.833C39 565.373 39.3731 565 39.8333 565H48.1667C48.6269 565 49 565.373 49 565.833V565.833C49 568.135 47.1345 570 44.8333 570H43.1667C40.8655 570 39 568.135 39 565.833V565.833Z" fill="#F9F9F9"/>
<circle cx="33" cy="563" r="3" fill="#DD9F76"/>
<circle cx="33" cy="563" r="3" fill="black" fill-opacity="0.1"/>
<circle cx="55" cy="563" r="3" fill="#DD9F76"/>
<circle cx="55" cy="563" r="3" fill="black" fill-opacity="0.1"/>
</svg>
