<svg width="88" height="627" viewBox="0 0 88 627" fill="none" xmlns="http://www.w3.org/2000/svg">
<path fill-rule="evenodd" clip-rule="evenodd" d="M0 101.257C6.74621 83.5666 23.8706 71 43.9301 71C63.9897 71 81.1141 83.5666 87.8603 101.257C76.192 111.671 60.8003 118 43.9301 118C27.06 118 11.6683 111.671 0 101.257Z" fill="#87CE2D"/>
<path fill-rule="evenodd" clip-rule="evenodd" d="M26.0811 74.5078C31.5845 72.2468 37.6117 71 43.9301 71C50.1135 71 56.018 72.1941 61.4256 74.3642C59.8501 82.6975 52.5308 89 43.7395 89C34.9987 89 27.713 82.7697 26.0811 74.5078Z" fill="#895A3B"/>
<path fill-rule="evenodd" clip-rule="evenodd" d="M26.0811 74.5078C31.5845 72.2468 37.6117 71 43.9301 71C50.1135 71 56.018 72.1941 61.4256 74.3642C59.8501 82.6975 52.5308 89 43.7395 89C34.9987 89 27.713 82.7697 26.0811 74.5078Z" fill="black" fill-opacity="0.1"/>
<rect x="11" y="29.7923" width="51.9413" height="23.085" rx="11.5425" transform="rotate(-35 11 29.7923)" fill="#1D1D28"/>
<circle cx="58.5" cy="30.5" r="13.5" fill="#1D1D28"/>
<rect x="11" y="44" width="65" height="16" rx="8" fill="#895A3B"/>
<rect x="11" y="44" width="65" height="16" rx="8" fill="black" fill-opacity="0.1"/>
<path d="M18 61C18 59.8954 18.8954 59 20 59H68C69.1046 59 70 59.8954 70 61V66C70 75.9411 61.9411 84 52 84H36C26.0589 84 18 75.9411 18 66V61Z" fill="#1D1D28"/>
<path d="M20 43.5C20 30.5213 30.5213 20 43.5 20V20C56.4787 20 67 30.5213 67 43.5V62C67 70.8366 59.8366 78 51 78H36C27.1634 78 20 70.8366 20 62V43.5Z" fill="#895A3B"/>
<path fill-rule="evenodd" clip-rule="evenodd" d="M55.8765 62C55.8765 60.8954 54.9811 60 53.8765 60H35.8765C34.772 60 33.8765 60.8954 33.8765 62V62C33.8765 63.1046 32.9811 64 31.8765 64H20.8765C19.772 64 18.8615 64.9006 19.0175 65.9941C19.9854 72.7815 25.8215 78 32.8765 78H54.8765C61.9315 78 67.7677 72.7815 68.7356 65.9941C68.8915 64.9006 67.9811 64 66.8765 64H57.8765C56.772 64 55.8765 63.1046 55.8765 62V62Z" fill="#1D1D28"/>
<circle cx="61" cy="32" r="9" fill="#1D1D28"/>
<circle cx="45" cy="26" r="16" fill="#1D1D28"/>
<circle cx="27" cy="32" r="7" fill="#1D1D28"/>
<rect x="30" y="47" width="10" height="4" rx="2" fill="#1D1D28"/>
<rect x="48" y="47" width="10" height="4" rx="2" fill="#1D1D28"/>
<circle cx="36.5" cy="54.5" r="2.5" fill="#1D1D28"/>
<circle cx="51.5" cy="54.5" r="2.5" fill="#1D1D28"/>
<path d="M39 65.8333C39 65.3731 39.3731 65 39.8333 65H48.1667C48.6269 65 49 65.3731 49 65.8333V65.8333C49 68.1345 47.1345 70 44.8333 70H43.1667C40.8655 70 39 68.1345 39 65.8333V65.8333Z" fill="#F9F9F9"/>
<circle cx="29" cy="59" r="2" fill="#895A3B"/>
<circle cx="29" cy="59" r="2" fill="black" fill-opacity="0.1"/>
<circle cx="59" cy="59" r="2" fill="#895A3B"/>
<circle cx="59" cy="59" r="2" fill="black" fill-opacity="0.1"/>
<path fill-rule="evenodd" clip-rule="evenodd" d="M0 227.257C6.74621 209.567 23.8706 197 43.9301 197C63.9897 197 81.1141 209.567 87.8603 227.257C76.192 237.671 60.8003 244 43.9301 244C27.06 244 11.6683 237.671 0 227.257Z" fill="#3DBB7E"/>
<path fill-rule="evenodd" clip-rule="evenodd" d="M26.0811 200.508C31.5845 198.247 37.6117 197 43.9301 197C50.1135 197 56.018 198.194 61.4256 200.364C59.8501 208.697 52.5308 215 43.7395 215C34.9987 215 27.713 208.77 26.0811 200.508Z" fill="#F6D1B9"/>
<path fill-rule="evenodd" clip-rule="evenodd" d="M26.0811 200.508C31.5845 198.247 37.6117 197 43.9301 197C50.1135 197 56.018 198.194 61.4256 200.364C59.8501 208.697 52.5308 215 43.7395 215C34.9987 215 27.713 208.77 26.0811 200.508Z" fill="black" fill-opacity="0.05"/>
<circle cx="66.5" cy="157.5" r="14.5" fill="#E374B7"/>
<circle cx="20.5" cy="157.5" r="14.5" fill="#E374B7"/>
<circle cx="65.6598" cy="175.34" r="13.34" fill="#E374B7"/>
<circle cx="21.34" cy="175.34" r="13.34" fill="#E374B7"/>
<rect x="14" y="165" width="59" height="16" rx="8" fill="#F6D1B9"/>
<rect x="14" y="165" width="59" height="16" rx="8" fill="black" fill-opacity="0.05"/>
<path d="M20 169.5C20 156.521 30.5213 146 43.5 146V146C56.4787 146 67 156.521 67 169.5V182C67 194.15 57.1503 204 45 204H42C29.8497 204 20 194.15 20 182V169.5Z" fill="#F7D1B9"/>
<rect x="31" y="171" width="7" height="3" rx="1.5" fill="#E374B7"/>
<rect x="50" y="171" width="7" height="3" rx="1.5" fill="#E374B7"/>
<circle cx="37.5" cy="179.5" r="2.5" fill="#1D1D28"/>
<circle cx="50.5" cy="179.5" r="2.5" fill="#1D1D28"/>
<circle cx="32.5" cy="186.5" r="2.5" fill="#E374B7" fill-opacity="0.5"/>
<circle cx="55.5349" cy="186.535" r="2.53491" fill="#E374B7" fill-opacity="0.5"/>
<path fill-rule="evenodd" clip-rule="evenodd" d="M44.0698 188C43.0698 187 42.5698 187 41.5698 187C40.1891 187 39.0698 187.895 39.0698 189C39.0698 190.657 41.3084 192 44.0698 192C46.8312 192 49.0698 190.657 49.0698 189C49.0698 187.895 47.9505 187 46.5698 187H46.5698C45.5698 187 45.0698 187 44.0698 188Z" fill="#DF6262"/>
<circle cx="44" cy="146" r="21" fill="#E374B7"/>
<circle cx="16.5" cy="178.5" r="2.5" fill="white"/>
<circle cx="70.5" cy="178.5" r="2.5" fill="white"/>
<path fill-rule="evenodd" clip-rule="evenodd" d="M0.0175781 353.21C6.77604 335.545 23.888 323 43.93 323C64.007 323 81.1439 335.589 87.8778 353.303C76.2159 363.689 60.8448 370 43.9998 370C27.1046 370 11.6921 363.652 0.0175781 353.21Z" fill="#CE2D2D"/>
<path fill-rule="evenodd" clip-rule="evenodd" d="M26.3413 326.508C31.8447 324.247 37.8718 323 44.1902 323C50.3737 323 56.2782 324.194 61.6859 326.364C60.1104 334.698 52.7911 341 43.9997 341C35.2589 341 27.9732 334.77 26.3413 326.508Z" fill="#DD9F76"/>
<path fill-rule="evenodd" clip-rule="evenodd" d="M26.3413 326.508C31.8451 324.247 37.8729 323 44.1919 323C50.3747 323 56.2787 324.194 61.6859 326.364C60.1106 334.697 52.7912 341 43.9996 341C35.259 341 27.9735 334.77 26.3413 326.508Z" fill="black" fill-opacity="0.1"/>
<circle cx="34" cy="280" r="21" fill="#1D1D28"/>
<circle cx="56" cy="285" r="19" fill="#1D1D28"/>
<rect x="11" y="293" width="65" height="16" rx="8" fill="#DD9F76"/>
<rect x="11" y="293" width="65" height="16" rx="8" fill="black" fill-opacity="0.1"/>
<path d="M20 295.5C20 282.521 30.5213 272 43.5 272V272C56.4787 272 67 282.521 67 295.5V314C67 322.837 59.8366 330 51 330H36C27.1634 330 20 322.837 20 314V295.5Z" fill="#DD9F76"/>
<circle cx="32" cy="282" r="14" fill="#1D1D28"/>
<circle cx="47" cy="280" r="11" fill="#1D1D28"/>
<circle cx="60.5698" cy="281.5" r="8.5" fill="#1D1D28"/>
<rect x="31" y="298" width="7" height="3" rx="1.5" fill="#1D1D28"/>
<rect x="50" y="298" width="7" height="3" rx="1.5" fill="#1D1D28"/>
<circle cx="36.5" cy="304.5" r="2.5" fill="#1D1D28"/>
<circle cx="51.5" cy="304.5" r="2.5" fill="#1D1D28"/>
<path d="M39 311.833C39 311.373 39.3731 311 39.8333 311H48.1667C48.6269 311 49 311.373 49 311.833V311.833C49 314.135 47.1345 316 44.8333 316H43.1667C40.8655 316 39 314.135 39 311.833V311.833Z" fill="#F9F9F9"/>
<circle cx="33" cy="311" r="2" fill="#DD9F76"/>
<circle cx="33" cy="311" r="2" fill="black" fill-opacity="0.1"/>
<circle cx="55" cy="311" r="2" fill="#DD9F76"/>
<circle cx="55" cy="311" r="2" fill="black" fill-opacity="0.1"/>
<circle cx="66" cy="462" r="11" fill="#F5DD9C"/>
<circle cx="22" cy="458" r="11" fill="#F5DD9C"/>
<path d="M17 420.5C17 405.864 28.8645 394 43.5 394V394C58.1355 394 70 405.864 70 420.5V461H17V420.5Z" fill="#F5DD9C"/>
<path fill-rule="evenodd" clip-rule="evenodd" d="M0 479.257C6.74621 461.567 23.8706 449 43.9301 449C63.9897 449 81.1141 461.567 87.8603 479.257C76.192 489.671 60.8003 496 43.9301 496C27.06 496 11.6683 489.671 0 479.257Z" fill="#85745A"/>
<path fill-rule="evenodd" clip-rule="evenodd" d="M26.0811 452.508C31.5845 450.247 37.6117 449 43.9301 449C50.1135 449 56.018 450.194 61.4256 452.364C59.8501 460.697 52.5308 467 43.7395 467C34.9987 467 27.713 460.77 26.0811 452.508Z" fill="#E7A981"/>
<path fill-rule="evenodd" clip-rule="evenodd" d="M26.0811 452.508C31.5845 450.247 37.6117 449 43.9301 449C50.1135 449 56.018 450.194 61.4256 452.364C59.8501 460.697 52.5308 467 43.7395 467C34.9987 467 27.713 460.77 26.0811 452.508Z" fill="black" fill-opacity="0.1"/>
<path d="M55 451H70V462.5C70 466.642 66.6421 470 62.5 470V470C58.3579 470 55 466.642 55 462.5V451Z" fill="#F5DD9C"/>
<path d="M17 451H30V458.5C30 462.09 27.0899 465 23.5 465V465C19.9101 465 17 462.09 17 458.5V451Z" fill="#F5DD9C"/>
<rect x="15" y="419" width="57" height="16" rx="8" fill="#E7A981"/>
<rect x="15" y="419" width="57" height="16" rx="8" fill="black" fill-opacity="0.1"/>
<path d="M21 420.5C21 408.074 31.0736 398 43.5 398V398C55.9264 398 66 408.074 66 420.5V433.5C66 445.926 55.9264 456 43.5 456V456C31.0736 456 21 445.926 21 433.5V420.5Z" fill="#E7A981"/>
<rect x="30" y="422" width="7" height="3" rx="1.5" fill="#1D1D28"/>
<rect x="51" y="422" width="7" height="3" rx="1.5" fill="#1D1D28"/>
<circle cx="36.5" cy="430.5" r="2.5" fill="#1D1D28"/>
<circle cx="51.5" cy="430.5" r="2.5" fill="#1D1D28"/>
<path d="M39 438.833C39 438.373 39.3731 438 39.8333 438H48.1667C48.6269 438 49 438.373 49 438.833V438.833C49 441.135 47.1345 443 44.8333 443H43.1667C40.8655 443 39 441.135 39 438.833V438.833Z" fill="#F9F9F9"/>
<circle cx="33" cy="437" r="2" fill="#E7A981"/>
<circle cx="33" cy="437" r="2" fill="black" fill-opacity="0.1"/>
<circle cx="55" cy="437" r="2" fill="#E7A981"/>
<circle cx="55" cy="437" r="2" fill="black" fill-opacity="0.1"/>
<path fill-rule="evenodd" clip-rule="evenodd" d="M44.128 400.089C44.0173 398.957 44.9569 398.018 46.0872 398.147C57.295 399.43 66 408.949 66 420.5V420.5C66 421.323 65.3206 421.989 64.5017 421.91C53.8089 420.884 45.2628 411.695 44.128 400.089Z" fill="#F5DD9C"/>
<path fill-rule="evenodd" clip-rule="evenodd" d="M18.3497 421.927C18.0144 424.145 19.855 426.026 22.0794 425.733C35.9352 423.908 46.9082 412.935 48.7327 399.08C49.0257 396.855 47.1449 395.015 44.9264 395.35C31.2375 397.419 20.4183 408.238 18.3497 421.927Z" fill="#F5DD9C"/>
<path fill-rule="evenodd" clip-rule="evenodd" d="M0.0175781 605.21C6.77604 587.545 23.888 575 43.93 575C64.007 575 81.1439 587.589 87.8778 605.303C76.2159 615.689 60.8448 622 43.9998 622C27.1046 622 11.6921 615.652 0.0175781 605.21Z" fill="#55CFE0"/>
<path fill-rule="evenodd" clip-rule="evenodd" d="M26.3413 578.508C31.8447 576.247 37.8718 575 44.1902 575C50.3737 575 56.2782 576.194 61.6859 578.364C60.1104 586.698 52.7911 593 43.9997 593C35.2589 593 27.9732 586.77 26.3413 578.508Z" fill="#DA986C"/>
<path fill-rule="evenodd" clip-rule="evenodd" d="M26.3413 578.508C31.8451 576.247 37.8729 575 44.1919 575C50.3747 575 56.2787 576.194 61.6859 578.364C60.1106 586.697 52.7912 593 43.9996 593C35.259 593 27.9735 586.77 26.3413 578.508Z" fill="black" fill-opacity="0.1"/>
<ellipse cx="33.5" cy="532" rx="19.5" ry="20" fill="#FFC56F"/>
<ellipse cx="55.5" cy="535" rx="17.5" ry="18" fill="#FFC56F"/>
<rect x="14" y="546" width="59" height="16" rx="8" fill="#DA986C"/>
<rect x="14" y="546" width="59" height="16" rx="8" fill="black" fill-opacity="0.1"/>
<path d="M19.5 560L19.5 564" stroke="#55CFE0" stroke-width="3" stroke-linecap="round"/>
<path d="M22 545.5C22 533.626 31.6259 524 43.5 524V524C55.3741 524 65 533.626 65 545.5V565C65 574.389 57.3888 582 48 582H39C29.6112 582 22 574.389 22 565V545.5Z" fill="#DA986C"/>
<path fill-rule="evenodd" clip-rule="evenodd" d="M64.9956 545.051C62.3124 545.668 59.459 546 56.5002 546C43.0235 546 31.7316 539.108 28.7627 529.846C32.6113 526.221 37.7964 524 43.5002 524C55.2244 524 64.7567 533.384 64.9956 545.051Z" fill="#FFC56E"/>
<mask id="mask0_1343_81015" style="mask-type:alpha" maskUnits="userSpaceOnUse" x="22" y="524" width="43" height="58">
<path d="M22 545.5C22 533.626 31.6259 524 43.5 524V524C55.3741 524 65 533.626 65 545.5V565C65 574.389 57.3888 582 48 582H39C29.6112 582 22 574.389 22 565V545.5Z" fill="#DA986C"/>
</mask>
<g mask="url(#mask0_1343_81015)">
<path d="M19 539.5H26" stroke="#FFC56E" stroke-width="3" stroke-linecap="round"/>
<path d="M21 535H28" stroke="#FFC56E" stroke-width="3" stroke-linecap="round"/>
<path d="M17 544H24" stroke="#FFC56E" stroke-width="3" stroke-linecap="round"/>
</g>
<rect x="31" y="548" width="7" height="3" rx="1.5" fill="#FFC56F"/>
<rect x="50" y="548" width="7" height="3" rx="1.5" fill="#FFC56F"/>
<path d="M65 577.265C65 588.92 55.598 607 44 607C32.402 607 23 588.92 23 577.265C23 565.611 32.402 560 44 560C55.598 560 65 565.611 65 577.265Z" fill="#FFC56E"/>
<circle cx="36.5" cy="555.5" r="2.5" fill="#1D1D28"/>
<circle cx="51.5" cy="555.5" r="2.5" fill="#1D1D28"/>
<path d="M39 564.833C39 564.373 39.3731 564 39.8333 564H48.1667C48.6269 564 49 564.373 49 564.833V564.833C49 567.135 47.1345 569 44.8333 569H43.1667C40.8655 569 39 567.135 39 564.833V564.833Z" fill="#F9F9F9"/>
</svg>
