<svg width="76" height="76" viewBox="0 0 76 76" fill="none" xmlns="http://www.w3.org/2000/svg">
<path fill-rule="evenodd" clip-rule="evenodd" d="M9 0C4.02942 0 0 4.02944 0 9V67C0 71.9706 4.02942 76 9 76H67C71.9706 76 76 71.9706 76 67V9C76 4.02943 71.9706 0 67 0H9ZM31.1761 20.4539C29.7939 20.1511 28.2638 20 26.5854 20H10V56H27.0797C28.6373 56.0028 30.1886 55.7997 31.6951 55.3955C33.1921 54.9914 34.525 54.3701 35.6934 53.5292C36.861 52.6901 37.7912 51.6062 38.4819 50.278C39.1734 48.95 39.5189 47.3782 39.5189 45.5631C39.5189 43.3116 38.9828 41.3869 37.9142 39.7899C36.8444 38.194 35.2238 37.0758 33.052 36.437C34.6315 35.6637 35.824 34.6723 36.6306 33.4623C37.4368 32.2525 37.84 30.7399 37.84 28.9246C37.84 27.244 37.5684 25.8325 37.0255 24.6894C36.4824 23.5463 35.7172 22.6302 34.7301 21.941C33.743 21.2527 32.5583 20.7564 31.1761 20.4539ZM29.0043 33.5633C28.1156 34.2359 26.9805 34.5719 25.5983 34.5719L17.7499 34.5722V26.1516H25.006C25.6762 26.1498 26.3452 26.2088 27.0052 26.3279C27.6469 26.4464 28.2145 26.6556 28.7082 26.9584C29.2019 27.2603 29.5967 27.6813 29.8928 28.2188C30.189 28.7566 30.337 29.446 30.337 30.286C30.337 31.7986 29.8928 32.8913 29.0043 33.5633ZM28.2142 49.6217C27.5233 49.7728 26.799 49.8487 26.0424 49.8487L17.7499 49.8481V39.9659H26.1904C27.8685 39.9659 29.2176 40.3611 30.238 41.151C31.2577 41.9412 31.7682 43.2606 31.7682 45.1086C31.7682 46.0502 31.6118 46.8232 31.2994 47.428C30.9865 48.0333 30.5667 48.5127 30.0408 48.865C29.5137 49.2182 28.9052 49.4703 28.2142 49.6217ZM53.8129 50.6555C51.8384 50.6555 50.3245 50.1354 49.2715 49.0925C48.2177 48.051 47.6428 46.3696 47.5444 44.0508H65.9565C66.0873 42.034 65.9234 40.1016 65.4628 38.2524C65.001 36.4044 64.2529 34.7571 63.2164 33.3115C62.1794 31.8673 60.8547 30.7148 59.2427 29.8579C57.6297 29.0007 55.7379 28.5723 53.5658 28.5723C51.624 28.5723 49.8552 28.9249 48.2595 29.6309C46.6632 30.337 45.2889 31.3035 44.1378 32.5298C42.9849 33.7574 42.0966 35.2113 41.4721 36.8915C40.8461 38.5724 40.5343 40.3875 40.5343 42.3365C40.5343 44.3533 40.838 46.2025 41.4471 47.8828C42.056 49.5642 42.9199 51.0086 44.0389 52.2184C45.1569 53.4285 46.5228 54.3615 48.1356 55.0166C49.7479 55.6723 51.5582 56 53.5655 56C56.461 56 58.9292 55.328 60.9702 53.9831C63.0099 52.6391 64.5244 50.4033 65.5112 47.2774H59.3411C59.1108 48.0845 58.4854 48.8498 57.4652 49.5716C56.4453 50.2949 55.2273 50.6555 53.8129 50.6555ZM53.3688 33.9666C55.0793 33.9666 56.3551 34.4377 57.194 35.3784C58.0334 36.3197 58.6174 37.6975 58.9463 39.5128H47.5439C47.5767 39.0088 47.6837 38.4373 47.865 37.7985C48.0454 37.1606 48.3586 36.5552 48.8025 35.9834C49.2469 35.4116 49.8395 34.9336 50.58 34.5464C51.3203 34.1603 52.2497 33.9666 53.3688 33.9666ZM60.5936 21.828H46.3469V25.8628H60.5936V21.828Z" fill="#EFA472"/>
</svg>
