<svg width="76" height="76" viewBox="0 0 76 76" fill="none" xmlns="http://www.w3.org/2000/svg">
<path fill-rule="evenodd" clip-rule="evenodd" d="M9 0C4.02945 0 0 4.02944 0 9V67C0 71.9706 4.02945 76 9 76H67C71.9706 76 76 71.9706 76 67V9C76 4.02943 71.9706 0 67 0H9ZM8 38.5C8 21.6822 21.2336 8 37.5 8C53.7664 8 67 21.6822 67 38.5C67 55.3178 53.7664 69 37.5 69C21.2336 69 8 55.3178 8 38.5ZM62.6945 38.2935C62.6391 32.1446 60.5139 26.4982 57.0045 22.0652C56.4733 22.8081 52.2508 28.4045 42.9344 32.3372C43.8189 34.2091 44.4647 35.7282 45.149 37.455C53.5331 36.3649 61.8638 38.1119 62.6945 38.2935ZM40.9972 28.4632C49.9571 24.991 53.7501 19.72 54.2033 19.0526C48.0065 13.3684 39.5859 11.2207 31.5952 13.2122C32.2917 14.1764 36.8681 20.6197 40.9972 28.4632ZM36.1294 30.03C31.9543 22.3566 27.4517 15.9053 26.7873 14.9633C19.7379 18.4011 14.4686 25.12 12.8347 33.2041C13.9616 33.2194 24.3429 33.2661 36.1294 30.03ZM12.3153 37.7436C12.3076 38.0082 12.3025 38.2733 12.3025 38.5397C12.3025 45.2309 14.7557 51.3401 18.7802 55.9587C22.8647 48.7298 31.1431 41.1107 40.2547 38.4573C39.6222 36.9773 38.9331 35.4958 38.2118 34.0362C25.6284 37.9297 13.4178 37.767 12.3153 37.7436ZM41.9673 42.7651C31.8087 46.3481 24.6656 53.529 22.0335 59.0919C29.4981 65.1101 39.2406 66.0891 47.3427 62.521C46.968 60.2353 45.505 52.2696 41.9673 42.7651ZM46.6837 41.5613C49.9793 50.9248 51.3205 58.5512 51.5788 60.1359C57.2316 56.184 61.2558 49.9237 62.379 42.6749C61.5169 42.3937 54.5797 40.2545 46.6837 41.5613Z" fill="#EFA472"/>
</svg>
