<svg width="72" height="72" viewBox="0 0 72 72" fill="none" xmlns="http://www.w3.org/2000/svg">
<path fill-rule="evenodd" clip-rule="evenodd" d="M8 0C3.58173 0 0 3.58172 0 8V64C0 68.4183 3.58173 72 8 72H64C68.4183 72 72 68.4183 72 64V8C72 3.58172 68.4183 0 64 0H8ZM7 36.5C7 20.7537 19.7538 8 35.5 8C51.2462 8 64 20.7537 64 36.5C64 49.0756 55.8419 59.7631 44.5844 63.5394C43.1594 63.8244 42.625 62.9338 42.625 62.1856C42.625 61.864 42.629 61.3074 42.6343 60.5664C42.6449 59.0913 42.6606 56.8854 42.6606 54.3481C42.6606 51.6763 41.77 49.9663 40.7369 49.0756C47.0781 48.3631 53.74 45.9406 53.74 35.0037C53.74 31.8688 52.6356 29.3394 50.8188 27.3444C51.1037 26.6319 52.1013 23.7106 50.5338 19.7919C50.5338 19.7919 48.1469 19.0081 42.6963 22.7131C40.4162 22.0719 37.9938 21.7513 35.5713 21.7513C33.1488 21.7513 30.7263 22.0719 28.4462 22.7131C22.9956 19.0438 20.6087 19.7919 20.6087 19.7919C19.0412 23.7106 20.0388 26.6319 20.3237 27.3444C18.5069 29.3394 17.4025 31.9044 17.4025 35.0037C17.4025 45.905 24.0287 48.3631 30.37 49.0756C29.5506 49.7881 28.8025 51.035 28.5531 52.8875C26.9144 53.6356 22.8175 54.8469 20.2525 50.5363C19.7181 49.6813 18.115 47.5794 15.8706 47.615C13.4837 47.6506 14.9088 48.9688 15.9062 49.5031C17.1175 50.18 18.5069 52.7094 18.8275 53.5288C19.3975 55.1319 21.25 58.1956 28.4106 56.8775C28.4106 58.435 28.4258 59.9318 28.4363 60.972C28.4419 61.526 28.4462 61.9504 28.4462 62.1856C28.4462 62.9338 27.9119 63.7888 26.4869 63.5394C15.1581 59.7631 7 49.1113 7 36.5Z" fill="#EFA472"/>
</svg>
