<svg width="76" height="76" viewBox="0 0 76 76" fill="none" xmlns="http://www.w3.org/2000/svg">
<path fill-rule="evenodd" clip-rule="evenodd" d="M9 0C4.02945 0 0 4.02944 0 9V67C0 71.9706 4.02945 76 9 76H67C71.9706 76 76 71.9706 76 67V9C76 4.02943 71.9706 0 67 0H9ZM65.8294 49.9059C65.9665 46.8923 66 45.929 66 38.2588C66 38.2603 66 38.2618 66 38.2632V38.2544C66 38.2559 66 38.2574 66 38.2588C66 30.5863 65.9665 29.6265 65.8294 26.613C65.6918 23.6047 65.2158 21.5502 64.5176 19.7488C63.797 17.8885 62.8322 16.3167 61.2616 14.7449C59.6921 13.1731 58.1168 12.2076 56.2596 11.4835C54.4642 10.7889 52.4124 10.312 49.4064 10.1707C46.3945 10.0353 45.4322 10 37.7636 10C30.0951 10 29.135 10.0353 26.1232 10.1707C23.1183 10.312 21.0659 10.7889 19.2699 11.4835C17.4134 12.2076 15.8381 13.1731 14.2686 14.7449C12.6979 16.3149 11.7308 17.8891 11.0097 19.747C10.3114 21.5449 9.83548 23.6006 9.69781 26.6089C9.56076 29.623 9.52722 30.5831 9.52722 38.258C9.52722 45.9316 9.56076 46.8941 9.69778 49.9082C9.83548 52.9159 10.3114 54.9699 11.0096 56.7677C11.7308 58.625 12.6979 60.2015 14.2686 61.7716C15.8381 63.3428 17.4134 64.3083 19.2705 65.0306C21.0659 65.7288 23.1178 66.2051 26.1238 66.3434C29.1356 66.48 30.0951 66.5141 37.7636 66.5141C45.4321 66.5141 46.3951 66.4788 49.407 66.344C52.4118 66.2086 54.4642 65.7318 56.2602 65.0312C58.1168 64.3071 59.6921 63.3416 61.2616 61.7698C62.8317 60.1992 63.7964 58.6227 64.5176 56.7642C65.2159 54.9675 65.6918 52.9141 65.8294 49.9059ZM60.9118 39.1962C60.9121 39.7676 60.9123 40.2971 60.9116 40.7894L60.9186 40.7893C60.9127 46.0558 60.8774 47.066 60.7598 49.6728C60.6333 52.4278 60.1745 53.9237 59.7862 54.9198C59.2733 56.2385 58.6615 57.1804 57.6732 58.1694C56.6849 59.1584 55.7437 59.7718 54.426 60.284C53.4307 60.6708 51.9365 61.1311 49.1835 61.2571C46.2069 61.3925 45.3174 61.4196 37.7771 61.4196C30.2368 61.4196 29.3427 61.3925 26.3661 61.2571C23.6131 61.1317 22.1189 60.6708 21.1247 60.284C19.8064 59.7706 18.8676 59.1584 17.8793 58.1694C16.8911 57.1804 16.2792 56.2385 15.7675 54.9198C15.381 53.9231 14.921 52.4278 14.7939 49.6728C14.6586 46.6939 14.6292 45.7997 14.6292 38.2544C14.6292 30.7097 14.6586 29.8149 14.7939 26.8361C14.9198 24.081 15.3786 22.5845 15.7669 21.5896C16.2787 20.2704 16.8904 19.3314 17.8787 18.3424C18.8664 17.3534 19.8047 16.74 21.1224 16.2278C22.1165 15.841 23.6107 15.3807 26.3637 15.2547C29.3403 15.1193 30.2345 15.0899 37.7701 15.0899C45.3057 15.0899 46.1998 15.1193 49.1764 15.2547C51.9294 15.3801 53.4236 15.841 54.4178 16.2278C55.7355 16.7412 56.6767 17.3534 57.665 18.3424C58.6533 19.3308 59.265 20.271 59.7768 21.5896C60.1633 22.5857 60.6233 24.081 60.7492 26.8361C60.8845 29.8155 60.9116 30.7097 60.9116 38.2544C60.9116 38.5805 60.9117 38.8942 60.9118 39.1962ZM52.836 26.5618C54.7072 26.5618 56.2231 25.0429 56.2231 23.1709L56.2243 23.1709C56.2243 21.2988 54.7066 19.78 52.836 19.78C50.9653 19.78 49.4476 21.2988 49.4476 23.1709C49.4476 25.0429 50.9653 26.5618 52.836 26.5618ZM37.7636 52.7657C45.7714 52.7657 52.2639 46.2687 52.2642 38.255C52.2642 30.2411 45.7716 23.7454 37.7636 23.7454C29.7556 23.7454 23.266 30.2405 23.266 38.2544C23.266 46.2683 29.7556 52.7657 37.7636 52.7657ZM37.7636 28.8353C42.962 28.8353 47.1757 33.0527 47.1757 38.2544C47.1757 43.4567 42.962 47.6735 37.7636 47.6735C32.5658 47.6735 28.3515 43.4567 28.3515 38.2544C28.3515 33.0527 32.5658 28.8353 37.7636 28.8353Z" fill="#EFA472"/>
</svg>
